<svg xmlns="http://www.w3.org/2000/svg" xmlns:xlink="http://www.w3.org/1999/xlink" width="500" zoomAndPan="magnify" viewBox="0 0 375 374.999991" height="500" preserveAspectRatio="xMidYMid meet" version="1.0"><path fill="#000000" d="M 218.632812 297.578125 C 193.671875 297.578125 169.585938 293.726562 146.589844 286.027344 C 55.144531 255.40625 1.910156 243.894531 1.382812 243.785156 L 1.53125 243.082031 C 2.058594 243.195312 55.332031 254.714844 146.820312 285.347656 C 187.015625 298.804688 230.585938 300.476562 276.324219 290.304688 C 312.585938 282.242188 342.324219 268.226562 358.070312 257.796875 L 358.46875 258.398438 C 342.667969 268.859375 312.835938 282.921875 276.480469 291.003906 C 256.765625 295.386719 237.449219 297.578125 218.632812 297.578125 Z M 218.632812 297.578125 " fill-opacity="1" fill-rule="nonzero"/><path fill="#000000" d="M 209.246094 292.09375 C 189.726562 292.09375 169.617188 289.863281 149.457031 284.5 C 59.722656 260.695312 1.898438 249.953125 1.324219 249.847656 L 1.453125 249.140625 C 2.03125 249.246094 59.875 259.992188 149.640625 283.808594 C 233.609375 306.132812 316.871094 273.976562 359.035156 252.808594 L 359.355469 253.453125 C 327.226562 269.585938 271.25 292.09375 209.246094 292.09375 Z M 209.246094 292.09375 " fill-opacity="1" fill-rule="nonzero"/><path fill="#000000" d="M 197.96875 287.21875 C 182.117188 287.21875 166.871094 285.804688 152.324219 282.976562 C 64.292969 265.984375 1.882812 256.007812 1.269531 255.90625 L 1.378906 255.195312 C 1.996094 255.296875 64.417969 265.277344 152.457031 282.265625 C 231.058594 297.535156 309.171875 267.359375 346.714844 252.859375 C 351.847656 250.878906 356.277344 249.160156 360.015625 247.824219 L 360.257812 248.507812 C 356.535156 249.84375 352.105469 251.554688 346.976562 253.535156 C 327.675781 260.992188 298.507812 272.257812 264.578125 279.648438 C 241.417969 284.6875 219.152344 287.21875 197.96875 287.21875 Z M 197.96875 287.21875 " fill-opacity="1" fill-rule="nonzero"/><path fill="#000000" d="M 184.824219 283.171875 C 175.035156 283.171875 165.140625 282.640625 155.191406 281.445312 C 68.867188 271.277344 1.867188 262.066406 1.207031 261.972656 L 1.304688 261.261719 C 1.972656 261.355469 68.964844 270.566406 155.277344 280.730469 C 222.199219 288.765625 286.949219 266.945312 329.789062 252.523438 C 342.292969 248.308594 353.09375 244.671875 360.984375 242.851562 L 361.144531 243.554688 C 353.289062 245.363281 342.503906 248.996094 330.019531 253.203125 C 293.480469 265.503906 241.03125 283.171875 184.824219 283.171875 Z M 184.824219 283.171875 " fill-opacity="1" fill-rule="nonzero"/><path fill="#000000" d="M 168.835938 280.140625 C 165.25 280.140625 161.652344 280.066406 158.058594 279.914062 C 73.445312 276.566406 1.851562 268.121094 1.136719 268.03125 L 1.222656 267.316406 C 1.933594 267.402344 73.507812 275.847656 158.085938 279.195312 C 215.570312 281.605469 272.128906 263.820312 313.421875 250.820312 C 333.183594 244.597656 350.253906 239.222656 361.953125 237.882812 L 362.035156 238.597656 C 350.40625 239.929688 333.367188 245.296875 313.636719 251.507812 C 274.878906 263.707031 222.691406 280.140625 168.835938 280.140625 Z M 168.835938 280.140625 " fill-opacity="1" fill-rule="nonzero"/><path fill="#000000" d="M 116.214844 279.285156 C 52.507812 279.285156 1.699219 274.15625 1.082031 274.09375 L 1.15625 273.378906 C 1.914062 273.457031 78.042969 281.121094 160.910156 277.664062 C 209.953125 275.765625 258.210938 260.769531 296.988281 248.71875 C 324.027344 240.320312 347.382812 233.0625 362.929688 232.910156 L 362.933594 233.632812 C 347.492188 233.78125 324.191406 241.019531 297.207031 249.40625 C 258.390625 261.46875 210.078125 276.480469 160.9375 278.378906 C 145.65625 279.019531 130.605469 279.285156 116.214844 279.285156 Z M 116.214844 279.285156 " fill-opacity="1" fill-rule="nonzero"/><path fill="#000000" d="M 66.433594 282.496094 C 28.300781 282.496094 1.480469 280.195312 1.011719 280.160156 L 1.074219 279.441406 C 1.882812 279.507812 82.589844 286.414062 163.714844 276.132812 C 204.78125 271.078125 244.789062 258.222656 280.082031 246.882812 C 314.53125 235.820312 344.308594 226.261719 363.890625 227.949219 L 363.828125 228.664062 C 344.351562 227.003906 314.671875 236.527344 280.304688 247.566406 C 244.980469 258.917969 204.933594 271.78125 163.804688 276.847656 C 129.222656 281.230469 94.714844 282.496094 66.433594 282.496094 Z M 66.433594 282.496094 " fill-opacity="1" fill-rule="nonzero"/><path fill="#000000" d="M 40.03125 287.34375 C 16.558594 287.34375 1.304688 286.242188 0.945312 286.21875 L 1 285.5 C 1.847656 285.5625 87.117188 291.707031 166.515625 274.605469 C 199.804688 267.570312 233.085938 256.066406 262.445312 245.910156 C 304.496094 231.371094 340.8125 218.808594 364.84375 222.984375 L 364.726562 223.691406 C 340.867188 219.566406 304.636719 232.082031 262.6875 246.589844 C 233.308594 256.75 200.003906 268.261719 166.671875 275.308594 C 120.550781 285.242188 72.457031 287.34375 40.03125 287.34375 Z M 40.03125 287.34375 " fill-opacity="1" fill-rule="nonzero"/><path fill="#000000" d="M 24.074219 292.804688 C 9.871094 292.804688 1.167969 292.300781 0.886719 292.28125 L 0.929688 291.5625 C 1.828125 291.617188 91.621094 296.835938 169.335938 273.082031 C 194.59375 265.363281 219.289062 255.855469 243.171875 246.664062 C 293.386719 227.335938 336.765625 210.65625 365.808594 218.027344 L 365.632812 218.730469 C 336.792969 211.402344 293.53125 228.058594 243.433594 247.339844 C 219.535156 256.535156 194.828125 266.046875 169.546875 273.773438 C 115.667969 290.238281 56 292.804688 24.074219 292.804688 Z M 24.074219 292.804688 " fill-opacity="1" fill-rule="nonzero"/><path fill="#000000" d="M 14.839844 298.597656 C 6.15625 298.597656 1.039062 298.351562 0.820312 298.34375 L 0.859375 297.625 C 1.804688 297.667969 96.152344 302.132812 172.148438 271.5625 C 189.441406 264.609375 206.625 257.042969 223.242188 249.722656 C 279.277344 225.046875 332.214844 201.742188 366.769531 213.070312 L 366.542969 213.757812 C 332.234375 202.503906 279.433594 225.765625 223.535156 250.382812 C 206.914062 257.699219 189.722656 265.273438 172.417969 272.230469 C 113.710938 295.835938 44.082031 298.597656 14.839844 298.597656 Z M 14.839844 298.597656 " fill-opacity="1" fill-rule="nonzero"/><path fill="#000000" d="M 9.515625 304.53125 C 4.0625 304.53125 0.925781 304.410156 0.753906 304.402344 L 0.789062 303.683594 C 1.777344 303.71875 100.753906 307.570312 174.964844 270.039062 C 184.503906 265.257812 194.09375 260.339844 203.375 255.585938 C 267.070312 222.921875 327.21875 192.074219 367.722656 208.113281 L 367.453125 208.789062 C 327.28125 192.859375 267.242188 223.640625 203.699219 256.230469 C 194.417969 260.984375 184.824219 265.90625 175.289062 270.683594 C 113.835938 301.757812 35.460938 304.53125 9.515625 304.53125 Z M 9.515625 304.53125 " fill-opacity="1" fill-rule="nonzero"/><path fill="#000000" d="M 5.71875 310.523438 C 2.589844 310.523438 0.820312 310.46875 0.691406 310.464844 L 0.714844 309.742188 C 1.753906 309.78125 105.296875 312.851562 177.777344 268.519531 L 181.527344 266.238281 C 253.425781 222.601562 321.339844 181.394531 368.667969 203.152344 L 368.363281 203.8125 C 321.375 182.199219 253.625 223.328125 181.902344 266.859375 L 178.152344 269.128906 C 114.652344 307.972656 27.410156 310.523438 5.71875 310.523438 Z M 5.71875 310.523438 " fill-opacity="1" fill-rule="nonzero"/><path fill="#000000" d="M 3.652344 316.550781 C 1.734375 316.550781 0.675781 316.527344 0.625 316.527344 L 0.644531 315.804688 C 0.914062 315.816406 28.152344 316.472656 63.804688 310.800781 C 96.683594 305.570312 143.632812 293.722656 180.601562 267 C 251.710938 215.953125 319.667969 172.269531 369.617188 198.199219 L 369.285156 198.839844 C 319.707031 173.113281 251.9375 216.671875 181.019531 267.585938 C 143.9375 294.390625 96.863281 306.265625 63.898438 311.515625 C 35.070312 316.097656 11.71875 316.550781 3.652344 316.550781 Z M 3.652344 316.550781 " fill-opacity="1" fill-rule="nonzero"/><path fill="#000000" d="M 2.03125 322.59375 C 1.097656 322.59375 0.59375 322.585938 0.558594 322.585938 L 0.570312 321.863281 C 0.859375 321.882812 29.253906 322.34375 65.828125 315.652344 C 99.570312 309.472656 147.355469 295.761719 183.417969 265.484375 C 211.898438 241.714844 249.015625 212.394531 283.617188 196.503906 C 318.242188 180.601562 346.679688 179.535156 370.558594 193.242188 L 370.199219 193.863281 C 346.535156 180.285156 318.316406 181.359375 283.914062 197.15625 C 249.390625 213.007812 212.320312 242.296875 183.878906 266.039062 C 147.691406 296.414062 99.769531 310.171875 65.945312 316.363281 C 34.035156 322.199219 8.320312 322.59375 2.03125 322.59375 Z M 2.03125 322.59375 " fill-opacity="1" fill-rule="nonzero"/><path fill="#000000" d="M 1.054688 328.648438 C 0.707031 328.648438 0.515625 328.648438 0.488281 328.648438 L 0.5 327.925781 C 0.769531 327.945312 30.339844 328.230469 67.859375 320.503906 C 102.457031 313.386719 151.074219 297.792969 186.242188 263.96875 C 225.683594 226.199219 256.800781 202.464844 284.175781 189.289062 C 317.988281 173.015625 346.550781 172.683594 371.5 188.285156 L 371.121094 188.898438 C 314.898438 153.746094 246.371094 207.382812 186.742188 264.492188 C 151.445312 298.445312 102.6875 314.078125 67.988281 321.21875 C 33.265625 328.355469 5.328125 328.648438 1.054688 328.648438 Z M 1.054688 328.648438 " fill-opacity="1" fill-rule="nonzero"/><path fill="#000000" d="M 0.542969 334.707031 C 0.46875 334.707031 0.433594 334.707031 0.421875 334.707031 L 0.425781 333.984375 C 0.4375 333.984375 0.476562 333.984375 0.542969 333.984375 C 2.664062 333.984375 32.65625 333.820312 69.890625 325.355469 C 105.34375 317.292969 154.800781 299.832031 189.066406 262.449219 C 226.675781 221.558594 257.074219 196.015625 284.730469 182.074219 C 317.773438 165.417969 346.460938 165.828125 372.441406 183.324219 L 372.039062 183.921875 C 346.292969 166.585938 317.84375 166.1875 285.058594 182.71875 C 257.476562 196.625 227.140625 222.109375 189.597656 262.941406 C 155.199219 300.464844 105.589844 317.980469 70.035156 326.0625 C 32.738281 334.542969 2.683594 334.707031 0.542969 334.707031 Z M 0.542969 334.707031 " fill-opacity="1" fill-rule="nonzero"/><path fill="#000000" d="M 0.359375 340.769531 C 0.355469 340.769531 0.355469 340.769531 0.359375 340.769531 L 0.359375 340.046875 C 0.816406 340.046875 32.644531 339.953125 71.925781 330.210938 C 108.242188 321.199219 158.53125 301.867188 191.898438 260.929688 C 227.941406 216.8125 257.621094 189.464844 285.296875 174.863281 C 317.578125 157.828125 346.398438 158.972656 373.386719 178.367188 L 372.964844 178.953125 C 346.21875 159.730469 317.652344 158.605469 285.632812 175.496094 C 258.042969 190.054688 228.4375 217.347656 192.457031 261.386719 C 158.953125 302.484375 108.503906 321.882812 72.082031 330.914062 C 32.71875 340.671875 0.816406 340.769531 0.359375 340.769531 Z M 0.359375 340.769531 " fill-opacity="1" fill-rule="nonzero"/><path fill="#000000" d="M 0.289062 346.828125 L 0.285156 346.105469 C 0.613281 346.105469 33.652344 345.847656 73.953125 335.058594 C 111.121094 325.109375 162.25 303.90625 194.722656 259.410156 C 242.128906 194.546875 280.949219 161.894531 316.902344 156.648438 C 336.878906 153.746094 355.671875 159.210938 374.324219 173.40625 L 373.886719 173.976562 C 355.398438 159.910156 336.792969 154.472656 317.003906 157.359375 C 281.25 162.574219 242.578125 195.136719 195.300781 259.835938 C 162.699219 304.5 111.40625 325.773438 74.117188 335.753906 C 33.734375 346.566406 0.621094 346.828125 0.289062 346.828125 Z M 0.289062 346.828125 " fill-opacity="1" fill-rule="nonzero"/><path fill="#000000" d="M 0.222656 352.890625 L 0.214844 352.167969 C 0.558594 352.167969 34.753906 351.726562 75.988281 339.914062 C 114.015625 329.019531 165.980469 305.949219 197.558594 257.898438 C 242.382812 189.695312 279.828125 155.308594 315.417969 149.664062 C 335.867188 146.421875 355.4375 152.566406 375.265625 168.441406 L 374.8125 169.003906 C 355.15625 153.257812 335.761719 147.167969 315.527344 150.375 C 280.15625 155.980469 242.863281 190.273438 198.160156 258.285156 C 166.460938 306.527344 114.324219 329.683594 76.167969 340.605469 C 34.84375 352.441406 0.566406 352.886719 0.222656 352.890625 Z M 0.222656 352.890625 " fill-opacity="1" fill-rule="nonzero"/></svg>