<?xml version="1.0" encoding="UTF-8"?> <svg xmlns="http://www.w3.org/2000/svg" xmlns:xlink="http://www.w3.org/1999/xlink" viewBox="0 0 1000.6 229"><defs><style>.e{fill:url(#d);}.f{fill:#f1f4fa;}</style><linearGradient id="d" x1="33.54" y1="195.46" x2="195.46" y2="33.54" gradientTransform="matrix(1, 0, 0, 1, 0, 0)" gradientUnits="userSpaceOnUse"><stop offset="0" stop-color="#4c80e9"></stop><stop offset="1" stop-color="#91d2f5"></stop></linearGradient></defs><g id="a"></g><g id="b"><g id="c"><g><g><g><path class="f" d="M817.54,67.43c-12.51-12.4-27.99-18.57-46.49-18.57-22.8-.05-43.93,12.16-55.1,32.12-5.65,9.95-8.55,21.18-8.5,32.64-.05,17.63,6.22,32.64,18.68,45.03,12.51,12.39,27.81,18.62,45.91,18.62s33.05-6.23,45.5-18.68c12.45-12.5,18.68-27.63,18.68-45.55,.06-18.04-6.22-33.28-18.68-45.61Zm-.7,72.15c-4.48,7.85-11,14.42-18.91,18.85-8.03,4.6-17.1,6.98-26.35,6.92-14.2,0-26.35-5-36.42-15.01-10.06-10.01-15.07-22.22-15.07-36.77,0-9.83,2.27-18.74,6.81-26.7,9.25-16,26.24-25.95,44.68-26.12,9.2,0,18.21,2.44,26.18,7.1,7.91,4.48,14.55,10.99,19.08,18.85,4.53,7.8,6.81,16.53,6.81,26.3s-2.27,18.62-6.81,26.59Z"></path><path class="f" d="M951.09,139.57v.35c0,10.35-4.26,19.64-12.07,26.32-7.81,6.84-18.65,10.35-31.08,10.35-9.23,0-17.94-1.75-25.93-5.26-7.81-3.33-14.92-8.42-21.49-14.91l8.88-8.6c10.83,10.88,23.8,16.49,38.54,16.49,18.29,0,30.72-9.82,30.72-24.39v-.35c0-6.32-1.77-10.7-6.04-14.21-4.97-4.04-13.67-7.54-26.64-10.35-14.38-2.98-23.8-6.67-30.01-11.58-6.57-5.26-9.77-12.29-9.77-21.41v-.35c0-4.39,.89-8.6,2.84-12.46,1.78-3.86,4.44-7.37,7.81-10.35,7.1-5.96,16.69-9.3,27.17-9.3,7.1,0,14.21,1.41,21.13,3.86,6.22,2.46,12.08,5.79,17.76,10.35l-7.81,9.47c-9.59-7.54-20.07-11.4-31.08-11.4-7.46,0-14.21,2.28-18.82,6.32-4.26,3.69-6.57,8.42-6.57,13.51v.35c0,5.44,1.42,8.77,5.15,11.75,4.62,3.68,12.61,6.66,25.04,9.3,15.1,3.33,25.22,7.36,31.96,12.98,6.92,5.79,10.3,13.51,10.3,23.51Z"></path><path class="f" d="M670.58,77.96c-6.69-10.24-15.94-17.46-27.81-21.58-8.26-2.97-21.53-4.42-39.8-4.42h-25.36v122.24h38.92c15.24,0,27.11-2.21,35.55-6.64,8.44-4.42,15.3-11.28,20.6-20.59,5.29-9.31,7.91-20.13,7.91-32.35,0-14.19-3.32-26.41-10-36.65Zm-10.3,65.34c-5.3,7.8-12.51,13.21-21.71,16.18-6.52,2.09-18.27,3.14-35.14,3.14h-14.14V63.94h8.66c17.57,0,30.2,1.16,37.82,3.49,10.18,3.08,18.15,8.78,23.86,17.16,5.7,8.32,8.55,18.39,8.55,30.2s-2.68,20.71-7.91,28.51Z"></path><path class="f" d="M311.82,86.8c-4.59,7.91-6.86,16.76-6.86,26.65,0,14.9,5.12,27.35,15.36,37.29,10.24,9.95,23.1,14.96,38.69,14.96,17.11,0,31.42-6.69,42.94-20.13l9.66,7.33c-6.05,7.74-13.91,13.91-22.81,17.98-9.14,4.25-19.31,6.34-30.55,6.34-21.35,0-38.22-7.1-50.62-21.35-10.36-12.04-15.53-26.53-15.53-43.52,0-17.93,6.28-32.93,18.85-45.15,12.56-12.22,28.27-18.33,47.13-18.33,11.41,0,21.7,2.27,30.89,6.75,8.96,4.36,16.76,10.88,22.63,19.02l-9.66,7.39c-5.06-6.69-11.58-12.1-19.14-15.77-7.68-3.6-16.06-5.47-24.56-5.35-9.48-.06-18.85,2.33-27.11,7.03-8.03,4.43-14.72,10.95-19.32,18.86Z"></path><path class="f" d="M534.26,51.95h11.87V125.49c0,28.45-23.1,51.49-51.55,51.55-28.45-.07-51.49-23.1-51.55-51.55V51.95h11.81V125.49c0,21.94,17.8,39.68,39.74,39.68s39.68-17.74,39.68-39.68V51.95Z"></path></g><path class="e" d="M114.5,0C51.26,0,0,51.26,0,114.5s51.26,114.5,114.5,114.5,114.5-51.26,114.5-114.5S177.73,0,114.5,0Zm0,166.16c-28.49,0-51.67-23.18-51.67-51.67s23.18-51.67,51.67-51.67,51.67,23.18,51.67,51.67-23.18,51.67-51.67,51.67ZM12.67,114.5C12.67,60.48,54.96,16.17,108.17,12.89V50.48c-32.56,3.18-58.01,30.63-58.01,64.02s25.45,60.84,58.01,64.02v37.59c-53.21-3.28-95.5-47.59-95.5-101.61Zm108.16,101.61v-37.59c32.56-3.18,58.01-30.63,58.01-64.02s-25.45-60.84-58.01-64.02V12.89c53.21,3.28,95.5,47.59,95.5,101.61s-42.29,98.33-95.5,101.61Z"></path></g><path class="f" d="M1000.6,49.97c0,8.57-6.72,15.29-15.48,15.29s-15.57-6.72-15.57-15.29,6.91-15.11,15.57-15.11,15.48,6.72,15.48,15.11Zm-27.18,0c0,6.72,4.98,12.07,11.79,12.07s11.51-5.35,11.51-11.98-4.88-12.16-11.6-12.16-11.7,5.43-11.7,12.07Zm9.31,7.92h-3.5v-15.11c1.38-.28,3.32-.47,5.81-.47,2.86,0,4.14,.47,5.25,1.11,.83,.65,1.47,1.84,1.47,3.32,0,1.66-1.29,2.95-3.13,3.5v.18c1.47,.56,2.3,1.66,2.76,3.68,.47,2.3,.74,3.23,1.11,3.78h-3.78c-.46-.56-.74-1.94-1.2-3.68-.27-1.66-1.19-2.4-3.13-2.4h-1.66v6.08Zm.09-8.57h1.66c1.94,0,3.5-.65,3.5-2.21,0-1.38-1.01-2.3-3.23-2.3-.92,0-1.57,.09-1.94,.19v4.33Z"></path></g></g></g></svg> 