<?xml version="1.0" encoding="UTF-8"?><svg xmlns="http://www.w3.org/2000/svg" width="179" height="28" xmlns:xlink="http://www.w3.org/1999/xlink" viewBox="0 0 282.94 46.14"><defs><style>.e{fill:url(#d);}.f{fill:#000;}.g{fill:#000;}</style><linearGradient id="d" x1="6.76" y1="39.38" x2="39.38" y2="6.76" gradientTransform="matrix(1, 0, 0, 1, 0, 0)" gradientUnits="userSpaceOnUse"><stop offset="0" stop-color="#4c80e9"/><stop offset="1" stop-color="#91d2f5"/></linearGradient></defs><g id="a"/><g id="b"><g id="c"><g><g><g><g><path class="g" d="M164.72,13.59c-2.52-2.5-5.64-3.74-9.37-3.74-4.59-.01-8.85,2.45-11.1,6.47-1.14,2-1.72,4.27-1.71,6.58-.01,3.55,1.25,6.58,3.76,9.07,2.52,2.5,5.6,3.75,9.25,3.75s6.66-1.26,9.17-3.76c2.51-2.52,3.76-5.57,3.76-9.18,.01-3.63-1.25-6.71-3.76-9.19Zm-.14,14.54c-.9,1.58-2.22,2.91-3.81,3.8-1.62,.93-3.45,1.41-5.31,1.39-2.86,0-5.31-1.01-7.34-3.02-2.03-2.02-3.04-4.48-3.04-7.41,0-1.98,.46-3.78,1.37-5.38,1.86-3.22,5.29-5.23,9-5.26,1.85,0,3.67,.49,5.28,1.43,1.59,.9,2.93,2.21,3.85,3.8,.91,1.57,1.37,3.33,1.37,5.3s-.46,3.75-1.37,5.36Z"/><path class="g" d="M191.63,28.12v.07c0,2.08-.86,3.96-2.43,5.3-1.57,1.38-3.76,2.08-6.26,2.08-1.86,0-3.61-.35-5.22-1.06-1.57-.67-3.01-1.7-4.33-3l1.79-1.73c2.18,2.19,4.79,3.32,7.76,3.32,3.68,0,6.19-1.98,6.19-4.91v-.07c0-1.27-.36-2.16-1.22-2.86-1-.81-2.76-1.52-5.37-2.09-2.9-.6-4.8-1.34-6.05-2.33-1.32-1.06-1.97-2.48-1.97-4.31v-.07c0-.88,.18-1.73,.57-2.51,.36-.78,.89-1.48,1.57-2.09,1.43-1.2,3.36-1.87,5.47-1.87,1.43,0,2.86,.28,4.26,.78,1.25,.5,2.43,1.17,3.58,2.09l-1.57,1.91c-1.93-1.52-4.04-2.3-6.26-2.3-1.5,0-2.86,.46-3.79,1.27-.86,.74-1.32,1.7-1.32,2.72v.07c0,1.1,.29,1.77,1.04,2.37,.93,.74,2.54,1.34,5.05,1.87,3.04,.67,5.08,1.48,6.44,2.61,1.4,1.17,2.08,2.72,2.08,4.74Z"/><path class="g" d="M135.11,15.71c-1.35-2.06-3.21-3.52-5.6-4.35-1.66-.6-4.34-.89-8.02-.89h-5.11v24.63h7.84c3.07,0,5.46-.45,7.16-1.34,1.7-.89,3.08-2.27,4.15-4.15,1.07-1.88,1.59-4.06,1.59-6.52,0-2.86-.67-5.32-2.02-7.38Zm-2.08,13.16c-1.07,1.57-2.52,2.66-4.37,3.26-1.31,.42-3.68,.63-7.08,.63h-2.85V12.88h1.75c3.54,0,6.08,.23,7.62,.7,2.05,.62,3.66,1.77,4.81,3.46,1.15,1.68,1.72,3.7,1.72,6.08s-.54,4.17-1.59,5.74Z"/><path class="g" d="M62.83,17.49c-.93,1.59-1.38,3.38-1.38,5.37,0,3,1.03,5.51,3.09,7.51,2.06,2.01,4.65,3.01,7.79,3.01,3.45,0,6.33-1.35,8.65-4.06l1.95,1.48c-1.22,1.56-2.8,2.8-4.6,3.62-1.84,.86-3.89,1.28-6.15,1.28-4.3,0-7.7-1.43-10.2-4.3-2.09-2.43-3.13-5.35-3.13-8.77,0-3.61,1.27-6.64,3.8-9.1,2.53-2.46,5.7-3.69,9.49-3.69,2.3,0,4.37,.46,6.22,1.36,1.81,.88,3.38,2.19,4.56,3.83l-1.95,1.49c-1.02-1.35-2.33-2.44-3.86-3.18-1.55-.73-3.24-1.1-4.95-1.08-1.91-.01-3.8,.47-5.46,1.42-1.62,.89-2.97,2.21-3.89,3.8Z"/><path class="g" d="M107.64,10.47h2.39v14.82c0,5.73-4.65,10.37-10.39,10.39-5.73-.01-10.37-4.65-10.39-10.39V10.47h2.38v14.82c0,4.42,3.59,8,8.01,8s8-3.57,8-8V10.47Z"/></g><path class="e" d="M23.07,0C10.33,0,0,10.33,0,23.07s10.33,23.07,23.07,23.07,23.07-10.33,23.07-23.07S35.81,0,23.07,0Zm0,33.48c-5.74,0-10.41-4.67-10.41-10.41s4.67-10.41,10.41-10.41,10.41,4.67,10.41,10.41-4.67,10.41-10.41,10.41ZM2.55,23.07C2.55,12.19,11.07,3.26,21.79,2.6v7.57c-6.56,.64-11.69,6.17-11.69,12.9s5.13,12.26,11.69,12.9v7.57c-10.72-.66-19.24-9.59-19.24-20.47Zm21.79,20.47v-7.57c6.56-.64,11.69-6.17,11.69-12.9s-5.13-12.26-11.69-12.9V2.6c10.72,.66,19.24,9.59,19.24,20.47s-8.52,19.81-19.24,20.47Z"/></g><path class="g" d="M201.61,10.07c0,1.73-1.35,3.08-3.12,3.08s-3.14-1.35-3.14-3.08,1.39-3.04,3.14-3.04,3.12,1.35,3.12,3.04Zm-5.48,0c0,1.35,1,2.43,2.38,2.43s2.32-1.08,2.32-2.41-.98-2.45-2.34-2.45-2.36,1.09-2.36,2.43Zm1.88,1.6h-.71v-3.04c.28-.06,.67-.09,1.17-.09,.58,0,.83,.09,1.06,.22,.17,.13,.3,.37,.3,.67,0,.33-.26,.59-.63,.71v.04c.3,.11,.46,.33,.56,.74,.09,.46,.15,.65,.22,.76h-.76c-.09-.11-.15-.39-.24-.74-.05-.33-.24-.48-.63-.48h-.33v1.23Zm.02-1.73h.33c.39,0,.71-.13,.71-.45,0-.28-.2-.46-.65-.46-.19,0-.32,.02-.39,.04v.87Z"/></g><g><path class="f" d="M233.96,22.71c0,3.58-1,6.33-2.99,8.22-1.99,1.9-4.86,2.84-8.6,2.84h-6.08V12.06h6.71c3.46,0,6.14,.93,8.07,2.79,1.92,1.86,2.88,4.48,2.88,7.86Zm-3.74,.12c0-5.2-2.43-7.8-7.29-7.8h-3.07v15.76h2.53c5.23,0,7.84-2.65,7.84-7.96Z"/><path class="f" d="M252.83,25.54c0,2.68-.69,4.78-2.06,6.28-1.38,1.51-3.29,2.26-5.75,2.26-1.54,0-2.89-.35-4.07-1.04-1.18-.69-2.08-1.69-2.72-2.99-.63-1.3-.95-2.8-.95-4.52,0-2.66,.68-4.74,2.05-6.24,1.37-1.5,3.29-2.24,5.78-2.24s4.26,.76,5.64,2.29c1.39,1.53,2.08,3.59,2.08,6.19Zm-11.96,0c0,3.79,1.4,5.69,4.2,5.69s4.16-1.9,4.16-5.69-1.4-5.63-4.19-5.63c-1.47,0-2.53,.49-3.19,1.46-.66,.97-.99,2.36-.99,4.17Z"/><path class="f" d="M263.46,34.08c-2.49,0-4.37-.73-5.67-2.18-1.29-1.45-1.94-3.53-1.94-6.25s.68-4.89,2.03-6.37,3.31-2.23,5.86-2.23c1.73,0,3.29,.32,4.68,.97l-1.05,2.81c-1.48-.57-2.69-.86-3.65-.86-2.84,0-4.26,1.89-4.26,5.66,0,1.84,.35,3.23,1.06,4.15,.71,.93,1.75,1.39,3.11,1.39,1.55,0,3.02-.39,4.41-1.16v3.05c-.62,.37-1.29,.63-2,.79-.71,.16-1.57,.24-2.58,.24Z"/><path class="f" d="M282.94,29.1c0,1.6-.58,2.83-1.75,3.69-1.17,.86-2.84,1.28-5.02,1.28s-3.95-.33-5.27-1v-3.02c1.93,.89,3.73,1.34,5.39,1.34,2.15,0,3.22-.65,3.22-1.95,0-.42-.12-.76-.36-1.04-.24-.28-.63-.56-1.17-.86-.54-.3-1.3-.63-2.27-1.01-1.89-.73-3.17-1.47-3.84-2.2-.67-.73-1-1.68-1-2.85,0-1.41,.57-2.5,1.7-3.28,1.13-.78,2.68-1.17,4.63-1.17s3.76,.39,5.48,1.17l-1.13,2.63c-1.77-.73-3.26-1.1-4.47-1.1-1.84,0-2.76,.52-2.76,1.57,0,.52,.24,.95,.72,1.31,.48,.36,1.53,.85,3.14,1.47,1.36,.52,2.34,1.01,2.96,1.44,.61,.44,1.07,.94,1.37,1.51,.3,.57,.45,1.25,.45,2.04Z"/></g></g></g></g></svg>