<svg xmlns="http://www.w3.org/2000/svg" xmlns:xlink="http://www.w3.org/1999/xlink" width="500" zoomAndPan="magnify" viewBox="0 0 375 374.999991" height="500" preserveAspectRatio="xMidYMid meet" version="1.0"><defs><clipPath id="f29ab53817"><path d="M 152 16.753906 L 297 16.753906 L 297 163 L 152 163 Z M 152 16.753906 " clip-rule="nonzero"/></clipPath><clipPath id="5de8785d0d"><path d="M 37.5 269 L 152 269 L 152 358.003906 L 37.5 358.003906 Z M 37.5 269 " clip-rule="nonzero"/></clipPath><clipPath id="f4af875d04"><path d="M 232 276 L 321.75 276 L 321.75 358.003906 L 232 358.003906 Z M 232 276 " clip-rule="nonzero"/></clipPath></defs><path fill="#000000" d="M 154.375 95.632812 C 153.792969 95.144531 152.878906 95.085938 152.460938 95.964844 C 150.804688 99.476562 149.003906 102.925781 147.050781 106.289062 C 145.335938 109.246094 143.601562 112.625 140.664062 114.566406 C 137.648438 116.554688 133.8125 117.746094 130.328125 118.621094 C 126.972656 119.464844 123.507812 119.6875 120.074219 119.226562 C 106.105469 117.363281 95.90625 106.441406 89.320312 94.757812 C 85.855469 88.617188 82.605469 81.976562 80.925781 75.105469 C 79.328125 68.589844 79.933594 61.929688 82.507812 55.746094 C 84.96875 49.851562 88.984375 44.644531 93.769531 40.445312 C 96.316406 38.214844 99.167969 36.066406 102.378906 34.898438 C 105.96875 33.59375 109.851562 33.539062 113.625 33.453125 C 117.316406 33.367188 121.167969 33.417969 124.59375 34.980469 C 127.78125 36.433594 130.589844 38.75 133.40625 40.808594 C 139.023438 44.90625 144.5625 49.207031 149.203125 54.414062 C 150.382812 55.742188 151.492188 57.125 152.527344 58.566406 C 152.621094 58.699219 152.730469 58.804688 152.84375 58.890625 C 152.824219 58.730469 152.828125 58.558594 152.875 58.371094 C 153.097656 57.457031 153.359375 56.558594 153.652344 55.667969 C 149.5 50.304688 144.398438 45.828125 139.019531 41.703125 C 135.992188 39.378906 132.914062 37.097656 129.769531 34.941406 C 126.492188 32.695312 123.066406 31.324219 119.097656 30.933594 C 115.183594 30.550781 111.03125 30.699219 107.128906 31.152344 C 103.257812 31.601562 99.742188 32.835938 96.496094 35.007812 C 90.761719 38.835938 85.832031 44.113281 82.378906 50.078125 C 79.007812 55.910156 77.007812 62.65625 77.390625 69.425781 C 77.824219 77.214844 81.148438 84.578125 84.578125 91.464844 C 90.988281 104.34375 100.546875 116.691406 114.953125 120.839844 C 118.347656 121.820312 121.9375 122.285156 125.46875 122.066406 C 129.464844 121.8125 133.289062 120.648438 137.011719 119.226562 C 140.574219 117.859375 143.570312 116.171875 145.898438 113.074219 C 147.949219 110.351562 149.632812 107.296875 151.234375 104.273438 C 151.78125 101.695312 152.328125 99.121094 152.875 96.546875 C 153.050781 95.730469 153.746094 95.480469 154.375 95.632812 " fill-opacity="1" fill-rule="nonzero"/><path fill="#000000" d="M 131.371094 66.453125 C 128.445312 64.453125 124.996094 62.722656 121.53125 61.917969 C 118.542969 61.222656 114.507812 61.15625 112.277344 63.65625 C 111.117188 64.949219 110.804688 66.789062 110.523438 68.441406 C 110.191406 70.386719 110.023438 72.347656 110.027344 74.320312 C 110.027344 76.023438 112.679688 76.027344 112.679688 74.320312 C 112.679688 72.65625 112.777344 70.996094 113.050781 69.359375 C 113.261719 68.078125 113.394531 66.269531 114.367188 65.300781 C 115.574219 64.105469 117.472656 63.953125 119.285156 64.1875 C 119.757812 63.640625 120.402344 63.226562 121.246094 63.035156 C 122.523438 62.75 123.234375 64.183594 122.75 65.039062 C 128.175781 66.894531 133.144531 70.363281 136.328125 75.160156 C 137.269531 76.578125 139.570312 75.253906 138.625 73.824219 C 136.6875 70.914062 134.257812 68.425781 131.371094 66.453125 " fill-opacity="1" fill-rule="nonzero"/><path fill="#000000" d="M 151.292969 91.460938 C 151.003906 90.535156 150.695312 89.585938 150.402344 88.625 C 150.375 88.671875 150.355469 88.71875 150.332031 88.769531 C 148.183594 94.074219 145.074219 99.003906 141.214844 103.230469 C 137.75 107.023438 133.152344 111.429688 127.703125 111.683594 C 122.179688 111.941406 116.765625 108.074219 113.039062 104.347656 C 108.910156 100.222656 105.910156 95.160156 103.261719 89.996094 C 100.382812 84.386719 97.707031 78.835938 97.070312 72.484375 C 96.53125 67.054688 96.519531 61.042969 98.0625 55.761719 C 98.726562 53.492188 99.785156 51.316406 101.484375 49.640625 C 103.335938 47.820312 105.789062 46.835938 108.328125 46.449219 C 113.371094 45.679688 118.695312 46.972656 123.441406 48.617188 C 134.339844 52.402344 143.808594 60.066406 149.769531 69.9375 C 149.929688 70.199219 150.128906 70.363281 150.351562 70.464844 C 150.828125 69.753906 151.363281 69.070312 151.957031 68.421875 C 146.144531 58.890625 137.296875 51.417969 126.996094 47.148438 C 117.570312 43.234375 102.730469 40.269531 96.953125 51.402344 C 94.320312 56.460938 94.089844 62.601562 94.179688 68.183594 C 94.234375 71.566406 94.5625 74.976562 95.394531 78.265625 C 96.195312 81.457031 97.574219 84.441406 99.007812 87.390625 C 101.871094 93.273438 104.917969 99.136719 109.210938 104.121094 C 113.011719 108.527344 118.058594 112.507812 123.8125 113.914062 C 130.792969 115.625 136.839844 111.429688 141.550781 106.722656 C 145.785156 102.484375 149.199219 97.527344 151.738281 92.121094 C 151.539062 91.96875 151.382812 91.753906 151.292969 91.460938 " fill-opacity="1" fill-rule="nonzero"/><g clip-path="url(#f29ab53817)"><path fill="#000000" d="M 152.84375 58.890625 C 153.015625 60.15625 155.074219 60.550781 155.433594 59.078125 C 157.769531 49.519531 164.128906 41.613281 171.808594 35.679688 C 180.429688 29.027344 190.765625 24.546875 201.296875 21.941406 C 204.691406 21.101562 208.128906 20.472656 211.59375 20.046875 C 206.023438 22.382812 200.644531 25.167969 195.527344 28.390625 C 194.046875 29.320312 195.335938 31.34375 196.867188 30.679688 C 208.261719 25.730469 220.53125 21.511719 233.019531 20.507812 C 231.839844 20.816406 230.664062 21.152344 229.496094 21.519531 C 224.648438 23.046875 219.980469 25.074219 215.449219 27.355469 C 214.070312 28.046875 215.042969 30.136719 216.46875 29.78125 C 228.253906 26.828125 240.191406 22.300781 252.492188 24.902344 C 253.074219 25.023438 253.648438 25.164062 254.226562 25.308594 C 253.414062 25.222656 252.605469 25.140625 251.792969 25.074219 C 248.109375 24.777344 244.476562 25.097656 240.929688 26.164062 C 239.292969 26.652344 239.96875 29.113281 241.632812 28.722656 C 245.664062 27.773438 250.242188 29.796875 253.867188 31.351562 C 257.933594 33.101562 262.136719 34.828125 265.589844 37.652344 C 269.125 40.539062 271.632812 44.320312 273.710938 48.34375 C 276.054688 52.878906 277.234375 57.804688 277.585938 62.886719 C 277.78125 65.722656 278.011719 68.507812 278.410156 71.328125 C 278.808594 74.152344 279.042969 76.953125 279.007812 79.808594 C 278.941406 85.527344 278.335938 91.304688 279.6875 96.929688 C 280.910156 102.027344 283.484375 106.648438 285.738281 111.335938 C 288.109375 116.273438 289.574219 121.578125 290.785156 126.902344 C 293.152344 137.289062 293.601562 147.980469 293.472656 158.613281 C 294.378906 159.800781 295.25 161.023438 296.066406 162.28125 C 296.308594 151.492188 296.09375 140.625 294.128906 129.992188 C 293.109375 124.464844 291.722656 118.917969 289.644531 113.691406 C 287.59375 108.539062 284.585938 103.792969 282.886719 98.492188 C 281.765625 95.003906 281.496094 91.464844 281.488281 87.890625 C 280.945312 87.25 280.429688 86.601562 279.949219 85.96875 C 279.109375 84.871094 280.464844 83.792969 281.550781 84.136719 C 281.5625 83.808594 281.574219 83.472656 281.582031 83.144531 C 280.539062 81.964844 279.765625 80.609375 279.550781 79.113281 C 279.367188 77.828125 280.832031 77.109375 281.628906 77.605469 C 281.574219 75.878906 281.449219 74.152344 281.21875 72.421875 C 280.855469 69.675781 280.488281 66.957031 280.320312 64.195312 C 279.324219 64.546875 278.007812 63.460938 278.691406 62.277344 C 279.097656 61.578125 279.53125 60.867188 279.980469 60.164062 C 279.605469 57.113281 278.933594 54.113281 277.878906 51.234375 C 277.207031 51.53125 276.28125 51.347656 275.992188 50.445312 C 275.644531 49.355469 275.773438 48.285156 276.144531 47.273438 C 275.457031 45.898438 274.703125 44.542969 273.878906 43.226562 C 272.800781 44.199219 271.167969 42.429688 272.167969 41.175781 C 272.226562 41.105469 272.285156 41.035156 272.339844 40.964844 C 271.265625 39.5 270.078125 38.125 268.753906 36.894531 C 264.894531 33.300781 260.140625 31.191406 255.359375 29.128906 C 254.328125 28.683594 253.25 28.21875 252.148438 27.785156 C 256.296875 28.066406 260.460938 28.855469 264.605469 29.261719 C 265.921875 29.390625 266.40625 27.371094 265.277344 26.789062 C 258.980469 23.5625 252.179688 21.523438 245.070312 21.441406 C 243.367188 21.421875 241.679688 21.507812 239.992188 21.675781 C 241.933594 21.292969 243.890625 20.96875 245.871094 20.707031 C 247.5625 20.480469 247.589844 18.253906 245.871094 18.050781 C 236.402344 16.929688 226.855469 18.132812 217.636719 20.53125 C 218.765625 20.121094 219.902344 19.730469 221.046875 19.359375 C 222.429688 18.914062 222.246094 16.726562 220.695312 16.753906 C 208.527344 16.980469 196.488281 19.671875 185.382812 24.640625 C 175.871094 28.894531 166.847656 34.933594 160.394531 43.21875 C 157.464844 46.976562 155.132812 51.15625 153.652344 55.667969 C 153.359375 56.558594 153.097656 57.457031 152.875 58.371094 C 152.828125 58.558594 152.824219 58.730469 152.84375 58.890625 " fill-opacity="1" fill-rule="nonzero"/></g><path fill="#000000" d="M 273.878906 43.226562 C 273.9375 43.175781 273.992188 43.121094 274.046875 43.050781 C 278.890625 36.988281 285.5 32.3125 292.964844 30.09375 C 296.949219 28.910156 301.257812 28.53125 305.207031 30.058594 C 308.570312 31.355469 311.339844 33.949219 312.707031 37.296875 C 314.363281 41.351562 314.699219 45.996094 314.613281 50.332031 C 314.523438 54.84375 313.84375 59.3125 312.984375 63.730469 C 311.46875 71.480469 309.683594 79.933594 304.074219 85.863281 C 301.367188 88.722656 297.828125 90.972656 293.855469 91.464844 C 291.484375 91.761719 289.378906 91.28125 287.453125 89.851562 C 285.484375 88.394531 283.722656 86.570312 282.242188 84.632812 C 282.046875 84.378906 281.808594 84.21875 281.550781 84.136719 C 280.464844 83.792969 279.109375 84.871094 279.949219 85.96875 C 280.429688 86.601562 280.945312 87.25 281.488281 87.890625 C 283.953125 90.792969 287.066406 93.589844 290.808594 94.089844 C 294.820312 94.628906 299.003906 93.171875 302.273438 90.894531 C 309.625 85.777344 312.761719 77.175781 314.640625 68.777344 C 316.761719 59.269531 318.535156 49.097656 316.167969 39.464844 C 315.148438 35.3125 313.023438 31.75 309.457031 29.320312 C 305.820312 26.835938 301.34375 26.035156 297.015625 26.550781 C 287.417969 27.691406 278.351562 33.546875 272.339844 40.964844 C 272.285156 41.035156 272.226562 41.105469 272.167969 41.175781 C 271.167969 42.429688 272.800781 44.199219 273.878906 43.226562 " fill-opacity="1" fill-rule="nonzero"/><path fill="#000000" d="M 286.535156 86.800781 C 289.941406 88.492188 293.710938 88.269531 296.996094 86.367188 C 300.292969 84.453125 302.503906 81.234375 303.984375 77.796875 C 305.625 73.992188 306.738281 69.929688 307.605469 65.886719 C 308.523438 61.625 309.058594 57.296875 309.390625 52.949219 C 309.671875 49.265625 309.871094 45.441406 308.859375 41.839844 C 307.898438 38.441406 305.695312 35.136719 302.25 33.894531 C 300.398438 33.226562 298.457031 33.476562 296.570312 33.847656 C 294.871094 34.183594 293.195312 34.609375 291.550781 35.152344 C 287.863281 36.363281 284.34375 38.105469 281.347656 40.597656 C 279.925781 41.785156 278.667969 43.160156 277.59375 44.671875 C 277.03125 45.46875 276.484375 46.347656 276.144531 47.273438 C 275.773438 48.285156 275.644531 49.355469 275.992188 50.445312 C 276.28125 51.347656 277.207031 51.53125 277.878906 51.234375 C 278.410156 50.996094 278.78125 50.460938 278.550781 49.738281 C 278.097656 48.324219 279.277344 46.828125 280.082031 45.746094 C 280.949219 44.570312 281.992188 43.519531 283.101562 42.578125 C 285.277344 40.742188 287.867188 39.347656 290.515625 38.332031 C 293.257812 37.273438 296.445312 36.203125 299.40625 36.113281 C 302.703125 36.011719 305.042969 38.839844 306.039062 41.71875 C 307.050781 44.648438 307.050781 47.800781 306.878906 50.859375 C 306.675781 54.546875 306.308594 58.234375 305.683594 61.871094 C 305.066406 65.46875 304.207031 69.023438 303.109375 72.507812 C 302.113281 75.648438 300.929688 78.894531 298.761719 81.441406 C 296.582031 84 293.109375 86 289.648438 85.160156 C 287.839844 84.71875 286.195312 83.636719 284.777344 82.457031 C 283.476562 81.375 282.355469 80.140625 282.109375 78.410156 C 282.054688 78.015625 281.871094 77.757812 281.628906 77.605469 C 280.832031 77.109375 279.367188 77.828125 279.550781 79.113281 C 279.765625 80.609375 280.539062 81.964844 281.582031 83.144531 C 282.96875 84.707031 284.847656 85.960938 286.535156 86.800781 " fill-opacity="1" fill-rule="nonzero"/><path fill="#000000" d="M 280.984375 63.621094 C 283.390625 59.460938 286.597656 55.074219 290.726562 52.519531 C 289.972656 51.417969 291.167969 49.648438 292.398438 50.570312 C 292.6875 50.785156 292.96875 51.015625 293.238281 51.253906 C 295.246094 50.464844 297.445312 50.121094 299.84375 50.40625 C 301.535156 50.609375 301.523438 47.953125 299.84375 47.753906 C 291.015625 46.695312 284.410156 53.277344 279.980469 60.164062 C 279.53125 60.867188 279.097656 61.578125 278.691406 62.277344 C 278.007812 63.460938 279.324219 64.546875 280.320312 64.195312 C 280.574219 64.101562 280.808594 63.921875 280.984375 63.621094 " fill-opacity="1" fill-rule="nonzero"/><path fill="#000000" d="M 290.726562 52.519531 C 290.8125 52.640625 290.917969 52.757812 291.058594 52.859375 C 293.351562 54.574219 294.695312 57.441406 294.738281 60.28125 C 294.78125 63.714844 292.605469 66.875 291.128906 69.84375 C 290.371094 71.371094 292.660156 72.714844 293.421875 71.1875 C 295.21875 67.570312 297.667969 63.855469 297.363281 59.652344 C 297.125 56.375 295.65625 53.40625 293.238281 51.253906 C 292.96875 51.015625 292.6875 50.785156 292.398438 50.570312 C 291.167969 49.648438 289.972656 51.417969 290.726562 52.519531 " fill-opacity="1" fill-rule="nonzero"/><path fill="#000000" d="M 121.246094 63.035156 C 120.402344 63.226562 119.757812 63.640625 119.285156 64.1875 C 118.234375 65.40625 118.027344 67.300781 118.296875 68.949219 C 118.722656 71.523438 119.660156 74.082031 120.898438 76.367188 C 123.375 80.921875 127.570312 84.546875 132.679688 85.71875 C 134.339844 86.101562 135.050781 83.542969 133.386719 83.160156 C 129.425781 82.253906 126.109375 79.691406 123.9375 76.292969 C 122.84375 74.578125 122.027344 72.71875 121.453125 70.769531 C 121.066406 69.441406 119.882812 66.066406 121.949219 65.597656 C 122.339844 65.507812 122.597656 65.300781 122.75 65.039062 C 123.234375 64.183594 122.523438 62.75 121.246094 63.035156 " fill-opacity="1" fill-rule="nonzero"/><path fill="#000000" d="M 203.324219 124.894531 C 203.03125 125.085938 202.742188 125.285156 202.457031 125.488281 C 202.460938 125.488281 202.46875 125.484375 202.46875 125.484375 C 202.910156 125.414062 203.1875 125.1875 203.324219 124.894531 " fill-opacity="1" fill-rule="nonzero"/><path fill="#000000" d="M 274.1875 69.632812 C 271.132812 63.320312 265.296875 56.5625 257.835938 55.964844 C 254.128906 55.671875 250.90625 57.578125 247.859375 59.414062 C 246.292969 60.363281 244.707031 61.308594 242.953125 61.851562 C 241.015625 62.453125 239 62.609375 236.988281 62.492188 C 228.738281 62.011719 221.472656 57.21875 213.300781 56.214844 C 206.644531 55.394531 199.828125 56.683594 193.769531 59.492188 C 187.625 62.335938 182.269531 66.898438 178.613281 72.605469 C 174.800781 78.554688 172.890625 85.679688 172.878906 92.726562 C 172.859375 106.828125 181.347656 123.601562 196.695312 125.601562 C 197.152344 125.660156 197.605469 125.699219 198.054688 125.726562 C 199.113281 124.71875 200.257812 123.792969 201.476562 122.964844 C 194.242188 123.984375 187.433594 120.035156 182.96875 114.578125 C 178.738281 109.402344 176.265625 102.777344 175.679688 96.144531 C 175.105469 89.578125 176.234375 82.8125 179.214844 76.910156 C 182.085938 71.222656 186.597656 66.550781 192.097656 63.351562 C 197.480469 60.222656 203.6875 58.515625 209.929688 58.628906 C 217.476562 58.765625 224.03125 62.398438 231.207031 64.21875 C 233.042969 64.679688 234.929688 65.015625 236.824219 65.128906 C 236.367188 63.785156 238.429688 62.710938 239.253906 64.074219 C 239.457031 64.417969 239.664062 64.765625 239.867188 65.109375 C 240.699219 65.042969 241.527344 64.933594 242.347656 64.753906 C 245.789062 64.015625 248.574219 61.960938 251.59375 60.292969 C 252.972656 59.53125 254.441406 58.851562 256.019531 58.648438 C 257.835938 58.410156 259.710938 58.839844 261.359375 59.605469 C 264.421875 61.027344 267.03125 63.476562 269.015625 66.175781 C 273.441406 72.175781 275.199219 79.59375 275.648438 86.925781 C 275.878906 90.707031 275.882812 94.539062 275.601562 98.320312 C 275.359375 101.488281 274.828125 104.777344 273.375 107.640625 C 272.65625 109.058594 271.738281 110.296875 270.578125 111.382812 C 270.398438 111.550781 270.285156 111.738281 270.226562 111.921875 C 271.386719 111.886719 272.546875 111.878906 273.707031 111.929688 C 277.859375 106.960938 278.347656 99.921875 278.4375 93.660156 C 278.554688 85.476562 277.796875 77.09375 274.1875 69.632812 " fill-opacity="1" fill-rule="nonzero"/><path fill="#000000" d="M 216.34375 77.613281 C 209.140625 79.070312 202.121094 82.261719 196.582031 87.136719 C 193.667969 89.699219 191.183594 92.972656 190.480469 96.867188 C 190.183594 98.535156 192.742188 99.25 193.042969 97.570312 C 194.183594 91.234375 200.367188 86.917969 205.699219 84.136719 C 210.839844 81.453125 216.761719 79.71875 222.617188 79.386719 C 222.40625 78.074219 224.339844 77.121094 225.058594 78.484375 C 225.207031 78.769531 225.355469 79.054688 225.5 79.339844 C 229.175781 79.441406 232.847656 80.503906 235.332031 83.347656 C 236.460938 84.640625 238.328125 82.753906 237.210938 81.472656 C 232.085938 75.605469 223.269531 76.210938 216.34375 77.613281 " fill-opacity="1" fill-rule="nonzero"/><path fill="#000000" d="M 246.652344 85.59375 C 247.035156 84.523438 248.945312 83.035156 249.980469 82.292969 C 251.957031 80.882812 254.472656 79.8125 256.765625 79.054688 C 258.816406 78.371094 261.191406 78.027344 263.417969 78.300781 C 263.902344 77.503906 265.148438 77.191406 265.652344 78.257812 C 265.761719 78.484375 265.867188 78.71875 265.976562 78.949219 C 267.476562 79.554688 268.785156 80.5625 269.71875 82.085938 C 270.609375 83.539062 272.90625 82.210938 272.011719 80.75 C 268.765625 75.445312 261.917969 74.65625 256.429688 76.378906 C 253.707031 77.226562 250.683594 78.46875 248.390625 80.191406 C 247.777344 80.648438 247.070312 81.179688 246.40625 81.773438 C 246.578125 83.046875 246.648438 84.320312 246.652344 85.59375 " fill-opacity="1" fill-rule="nonzero"/><path fill="#000000" d="M 244.023438 85.542969 C 244.023438 85.429688 244.023438 85.3125 244.019531 85.195312 C 244.003906 85.316406 244.007812 85.433594 244.023438 85.542969 " fill-opacity="1" fill-rule="nonzero"/><path fill="#000000" d="M 231.65625 98.277344 C 231.558594 97.917969 231.363281 97.625 231.101562 97.378906 C 231.28125 97.738281 231.464844 98.09375 231.648438 98.449219 C 231.652344 98.394531 231.65625 98.335938 231.65625 98.277344 " fill-opacity="1" fill-rule="nonzero"/><path fill="#000000" d="M 222.617188 79.386719 C 222.640625 79.527344 222.6875 79.675781 222.765625 79.824219 C 225.171875 84.394531 227.179688 89.15625 229.375 93.832031 C 229.488281 93.855469 229.597656 93.882812 229.707031 93.910156 C 230.976562 94.230469 232.347656 94.816406 233.261719 95.777344 C 230.542969 90.363281 228.269531 84.730469 225.5 79.339844 C 225.355469 79.054688 225.207031 78.769531 225.058594 78.484375 C 224.339844 77.121094 222.40625 78.074219 222.617188 79.386719 " fill-opacity="1" fill-rule="nonzero"/><path fill="#000000" d="M 228.359375 102.109375 C 226.375 103.074219 224.246094 103.753906 222.074219 104.097656 C 217.054688 104.894531 212.039062 105.496094 206.953125 105.59375 C 205.53125 105.621094 204.097656 105.652344 202.671875 105.605469 C 201.644531 105.570312 200.222656 105.5 199.539062 104.589844 C 197.976562 102.519531 200.769531 100.324219 202.359375 99.535156 C 204.820312 98.316406 207.511719 97.5625 210.265625 97.074219 C 210.296875 96.722656 210.363281 96.378906 210.476562 96.050781 C 210.8125 95.085938 211.875 94.953125 212.546875 95.355469 C 212.949219 95.074219 213.445312 94.886719 213.992188 94.816406 C 215.808594 94.582031 217.59375 94.527344 219.394531 94.128906 C 220.085938 93.976562 220.84375 94.335938 221.027344 95.054688 C 221.109375 95.382812 221.171875 95.738281 221.214844 96.109375 C 223.226562 96.007812 225.257812 95.9375 227.242188 96.152344 C 228.359375 96.269531 230.152344 96.5 231.101562 97.378906 C 231.363281 97.625 231.558594 97.917969 231.65625 98.277344 C 231.65625 98.335938 231.652344 98.394531 231.648438 98.449219 C 231.480469 100.300781 229.949219 101.335938 228.359375 102.109375 Z M 229.707031 93.910156 C 229.597656 93.882812 229.488281 93.855469 229.375 93.832031 C 226.933594 93.277344 224.425781 93.390625 221.941406 93.460938 C 215.09375 93.652344 207.996094 94.136719 201.652344 96.949219 C 199.027344 98.117188 196.558594 100.207031 196.519531 103.304688 C 196.480469 106.492188 199.179688 108.003906 202.019531 108.222656 C 205.136719 108.464844 208.371094 108.269531 211.484375 108.054688 C 214.457031 107.847656 217.417969 107.460938 220.363281 107.027344 C 223.6875 106.53125 226.796875 105.839844 229.824219 104.339844 C 232.328125 103.097656 234.28125 101.089844 234.316406 98.160156 C 234.320312 97.996094 234.296875 97.847656 234.257812 97.714844 C 234.121094 96.945312 233.761719 96.304688 233.261719 95.777344 C 232.347656 94.816406 230.976562 94.230469 229.707031 93.910156 " fill-opacity="1" fill-rule="nonzero"/><path fill="#000000" d="M 211.535156 101.761719 C 212.5 103.398438 214.222656 104.675781 216.191406 104.625 C 220.117188 104.527344 221.59375 99.542969 221.214844 96.109375 C 221.171875 95.738281 221.109375 95.382812 221.027344 95.054688 C 220.84375 94.335938 220.085938 93.976562 219.394531 94.128906 C 217.59375 94.527344 215.808594 94.582031 213.992188 94.816406 C 213.445312 94.886719 212.949219 95.074219 212.546875 95.355469 C 211.875 94.953125 210.8125 95.085938 210.476562 96.050781 C 210.363281 96.378906 210.296875 96.722656 210.265625 97.074219 C 210.132812 98.671875 210.773438 100.460938 211.535156 101.761719 " fill-opacity="1" fill-rule="nonzero"/><path fill="#000000" d="M 269.527344 93.785156 C 269.464844 93.585938 269.359375 93.417969 269.226562 93.273438 C 269.324219 93.488281 269.421875 93.699219 269.519531 93.914062 C 269.527344 93.875 269.527344 93.828125 269.527344 93.785156 " fill-opacity="1" fill-rule="nonzero"/><path fill="#000000" d="M 263.417969 78.300781 C 263.199219 78.660156 263.136719 79.121094 263.363281 79.59375 C 264.957031 82.960938 266.300781 86.441406 267.746094 89.875 C 269.160156 90.097656 270.488281 90.558594 271.316406 91.492188 C 269.453125 87.347656 267.882812 83.074219 265.976562 78.949219 C 265.867188 78.71875 265.761719 78.484375 265.652344 78.257812 C 265.148438 77.191406 263.902344 77.503906 263.417969 78.300781 " fill-opacity="1" fill-rule="nonzero"/><path fill="#000000" d="M 263.414062 97.933594 C 262.578125 98.097656 261.742188 98.242188 260.902344 98.378906 C 260.464844 98.6875 259.949219 98.890625 259.347656 98.953125 C 258.832031 99.003906 258.34375 98.941406 257.894531 98.78125 C 256.226562 98.96875 254.554688 99.089844 252.878906 99.132812 C 251.945312 99.152344 251.011719 99.164062 250.082031 99.152344 C 249.410156 99.144531 248.441406 99.195312 247.925781 98.675781 C 246.636719 97.390625 248.550781 95.582031 249.59375 95.003906 C 251.125 94.152344 252.808594 93.597656 254.546875 93.222656 C 254.550781 92.777344 254.605469 92.347656 254.714844 91.953125 C 254.976562 91.03125 255.902344 90.847656 256.578125 91.160156 C 257.894531 90.507812 260.003906 90.550781 261.238281 90.253906 C 261.90625 90.089844 262.710938 90.46875 262.871094 91.179688 C 262.949219 91.535156 263 91.929688 263.027344 92.347656 C 264.28125 92.28125 265.550781 92.246094 266.777344 92.402344 C 267.5625 92.5 268.65625 92.667969 269.226562 93.273438 C 269.359375 93.417969 269.464844 93.585938 269.527344 93.785156 C 269.527344 93.828125 269.527344 93.875 269.519531 93.914062 C 269.246094 96.453125 265.5 97.527344 263.414062 97.933594 Z M 267.746094 89.875 C 266.109375 89.621094 264.355469 89.6875 263.109375 89.726562 C 258.125 89.882812 252.71875 90.25 248.253906 92.714844 C 247.414062 93.175781 246.644531 93.796875 246.058594 94.539062 C 245.894531 96.328125 245.730469 98.109375 245.566406 99.898438 C 246.261719 100.945312 247.464844 101.578125 248.871094 101.738281 C 251.132812 101.996094 253.542969 101.8125 255.808594 101.640625 C 258.046875 101.46875 260.269531 101.140625 262.484375 100.769531 C 266.390625 100.121094 272.101562 98.519531 272.191406 93.667969 C 272.195312 93.496094 272.167969 93.339844 272.125 93.203125 C 272 92.507812 271.71875 91.945312 271.316406 91.492188 C 270.488281 90.558594 269.160156 90.097656 267.746094 89.875 " fill-opacity="1" fill-rule="nonzero"/><path fill="#000000" d="M 263.027344 92.347656 C 263 91.929688 262.949219 91.535156 262.871094 91.179688 C 262.710938 90.46875 261.90625 90.089844 261.238281 90.253906 C 260.003906 90.550781 257.894531 90.507812 256.578125 91.160156 C 255.902344 90.847656 254.976562 91.03125 254.714844 91.953125 C 254.605469 92.347656 254.550781 92.777344 254.546875 93.222656 C 254.539062 95.445312 255.835938 98.070312 257.894531 98.78125 C 258.34375 98.941406 258.832031 99.003906 259.347656 98.953125 C 259.949219 98.890625 260.464844 98.6875 260.902344 98.378906 C 262.589844 97.191406 263.160156 94.457031 263.027344 92.347656 " fill-opacity="1" fill-rule="nonzero"/><path fill="#000000" d="M 296.226562 203.839844 C 296.160156 203.835938 296.09375 203.835938 296.019531 203.84375 C 296.089844 203.847656 296.15625 203.847656 296.226562 203.839844 " fill-opacity="1" fill-rule="nonzero"/><path fill="#000000" d="M 292.820312 157.765625 C 291.03125 155.492188 289.105469 153.332031 287.128906 151.222656 C 285.34375 149.320312 283.578125 147.378906 281.601562 145.675781 C 280.167969 144.441406 278.21875 143.046875 277.535156 141.203125 C 276.71875 139.019531 279.546875 137.320312 281 136.238281 C 285.121094 133.160156 291.101562 128.273438 288.722656 122.484375 C 287.695312 119.980469 285.890625 117.472656 283.898438 115.640625 C 281.796875 113.707031 279.191406 112.601562 276.382812 112.183594 C 275.492188 112.050781 274.601562 111.972656 273.707031 111.929688 C 272.546875 111.878906 271.386719 111.886719 270.226562 111.921875 C 269.351562 111.945312 268.476562 111.988281 267.601562 112.023438 C 264.277344 112.160156 260.957031 112.300781 257.632812 112.441406 C 250.96875 112.71875 244.257812 112.816406 237.613281 113.457031 C 231.132812 114.085938 224.75 115.414062 218.421875 116.925781 C 212.5625 118.328125 206.609375 119.496094 201.539062 122.921875 C 201.519531 122.9375 201.496094 122.953125 201.476562 122.964844 C 200.257812 123.792969 199.113281 124.71875 198.054688 125.726562 C 195.734375 127.9375 193.835938 130.566406 192.523438 133.535156 C 191.617188 135.574219 190.863281 137.683594 190.746094 139.925781 C 190.640625 141.976562 190.777344 144.335938 191.71875 146.199219 C 192.839844 148.414062 195.417969 149.015625 197.707031 149.050781 C 200.96875 149.097656 203.992188 148.3125 207.125 147.53125 C 208.492188 147.195312 210.835938 146.800781 211.832031 148.027344 C 212.378906 148.6875 212.355469 149.984375 212.183594 151.035156 C 211.679688 154.085938 210.175781 156.988281 208.683594 159.660156 C 206.179688 164.148438 203.601562 168.542969 201.542969 173.261719 C 199.09375 178.867188 197.246094 184.707031 196.476562 190.785156 C 195.289062 200.128906 196.027344 209.855469 200.914062 218.082031 C 201.359375 217.25 202.628906 216.898438 203.199219 217.972656 C 203.933594 219.363281 205.289062 220.324219 206.398438 221.402344 C 207.027344 222.023438 207.660156 222.632812 208.300781 223.238281 C 204.640625 219.535156 201.816406 215.128906 200.253906 210.140625 C 198.863281 205.707031 198.460938 201.054688 198.648438 196.425781 C 199.105469 185.175781 203.140625 174.828125 208.609375 165.105469 C 210.269531 162.160156 212.03125 159.308594 213.339844 156.183594 C 214.398438 153.644531 215.617188 150.359375 214.589844 147.621094 C 213.042969 143.496094 207.964844 144.558594 204.707031 145.445312 C 202.050781 146.167969 198.851562 146.828125 196.105469 146.25 C 195.175781 146.054688 194.347656 145.664062 193.964844 144.757812 C 193.574219 143.828125 193.460938 142.753906 193.40625 141.765625 C 193.167969 137.492188 195.140625 133.21875 197.761719 129.921875 C 199.097656 128.238281 200.695312 126.75 202.457031 125.488281 C 202.742188 125.285156 203.03125 125.085938 203.324219 124.894531 C 205.351562 123.570312 207.570312 122.535156 209.855469 121.839844 C 215.726562 120.054688 221.839844 118.730469 227.863281 117.570312 C 234.28125 116.328125 240.707031 115.800781 247.230469 115.527344 C 253.730469 115.253906 260.234375 114.984375 266.734375 114.710938 C 272.003906 114.492188 278.148438 113.773438 282.289062 117.765625 C 283.261719 118.707031 284.078125 119.785156 284.820312 120.914062 C 285.621094 122.125 286.546875 123.492188 286.667969 124.980469 C 286.886719 127.675781 284.101562 130.078125 282.3125 131.734375 C 279.304688 134.515625 272.90625 137.488281 275.242188 142.558594 C 276.109375 144.4375 277.773438 145.871094 279.3125 147.195312 C 281.050781 148.699219 282.628906 150.335938 284.214844 152 C 288.105469 156.085938 291.886719 160.339844 294.769531 165.214844 C 297.394531 169.660156 299.011719 174.460938 299.414062 179.617188 C 299.820312 184.832031 299.222656 190.113281 297.691406 195.109375 C 297.03125 197.25 296.191406 199.320312 295.148438 201.300781 C 295.890625 201.167969 296.640625 201.152344 297.359375 201.398438 C 297.5625 201.46875 297.757812 201.5625 297.9375 201.667969 C 302.324219 192.769531 303.519531 181.792969 300.785156 172.277344 C 299.761719 168.710938 298.078125 165.386719 296.066406 162.28125 C 295.25 161.023438 294.378906 159.800781 293.472656 158.613281 C 293.257812 158.332031 293.039062 158.046875 292.820312 157.765625 " fill-opacity="1" fill-rule="nonzero"/><path fill="#000000" d="M 253.511719 131.089844 C 255.054688 134.121094 255.28125 137.269531 254.957031 140.605469 C 254.410156 146.339844 252.574219 151.859375 252.113281 157.59375 C 251.648438 163.34375 252.8125 168.84375 255.3125 174.015625 C 257.628906 178.804688 260.789062 183.191406 262.65625 188.195312 C 265.1875 194.976562 264.792969 202.742188 263.03125 209.664062 C 262.613281 211.320312 265.171875 212.027344 265.589844 210.371094 C 267.230469 203.925781 267.78125 196.710938 266.085938 190.21875 C 264.683594 184.839844 261.609375 180.164062 258.980469 175.335938 C 257.707031 172.992188 256.539062 170.589844 255.761719 168.03125 C 254.875 165.101562 254.570312 162.035156 254.683594 158.984375 C 254.898438 153.1875 256.792969 147.574219 257.480469 141.828125 C 257.914062 138.199219 257.921875 134.601562 256.46875 131.183594 C 254.996094 127.714844 252.714844 124.5625 250.734375 121.367188 C 249.835938 119.921875 247.539062 121.25 248.441406 122.707031 C 250.15625 125.46875 252.03125 128.1875 253.511719 131.089844 " fill-opacity="1" fill-rule="nonzero"/><path fill="#000000" d="M 265.976562 136.613281 C 267.035156 136.792969 267.710938 135.828125 267.636719 135.03125 C 267.867188 134.875 268.050781 134.625 268.140625 134.261719 C 268.171875 134.144531 268.203125 134.027344 268.238281 133.910156 C 268.777344 132.445312 270.777344 132.199219 272.09375 131.703125 C 273.015625 131.351562 273.890625 130.898438 274.699219 130.34375 C 275.566406 130.152344 276.429688 129.894531 277.09375 129.269531 C 277.761719 128.640625 278.042969 127.714844 277.785156 126.851562 C 277.929688 126.289062 277.847656 125.703125 277.375 125.140625 C 276.441406 124.03125 274.820312 124.164062 273.546875 124.441406 C 270.664062 125.066406 268.121094 126.902344 266.425781 129.285156 C 265.410156 130.707031 262.699219 136.0625 265.976562 136.613281 " fill-opacity="1" fill-rule="nonzero"/><path fill="#000000" d="M 223.332031 137.957031 C 224.828125 137.316406 226.507812 136.507812 228.167969 136.386719 C 229.136719 136.316406 230.015625 136.558594 230.816406 136.976562 C 231.664062 137.53125 232.472656 138.179688 233.246094 138.910156 C 233.351562 139.175781 233.457031 139.4375 233.5625 139.703125 C 233.550781 139.925781 233.601562 140.160156 233.726562 140.398438 C 233.894531 140.722656 234.066406 141.042969 234.238281 141.367188 C 234.496094 141.855469 234.984375 142.03125 235.464844 141.984375 C 236.28125 142.558594 237.667969 142.234375 237.554688 140.988281 C 237.386719 139.226562 236.746094 137.675781 235.808594 136.179688 C 234.90625 134.746094 233.898438 133.222656 232.679688 132.027344 C 231.785156 131.148438 230.734375 130.480469 229.597656 130 C 226.5 128.40625 222.523438 128.378906 219.199219 129.019531 C 217.347656 129.378906 215.578125 130.074219 214.140625 131.3125 C 212.738281 132.519531 210.894531 134.914062 211.96875 136.808594 C 212.976562 138.578125 215.089844 139.386719 217.023438 139.515625 C 219.25 139.664062 221.328125 138.8125 223.332031 137.957031 " fill-opacity="1" fill-rule="nonzero"/><path fill="#000000" d="M 143.757812 131.828125 C 145.3125 128.472656 147.421875 125.417969 149.023438 122.089844 C 150.71875 118.558594 151.695312 114.78125 152.523438 110.964844 C 153.511719 106.398438 154.464844 101.820312 155.4375 97.25 C 155.613281 96.394531 155.035156 95.796875 154.375 95.632812 C 153.746094 95.480469 153.050781 95.730469 152.875 96.546875 C 152.328125 99.121094 151.78125 101.695312 151.234375 104.273438 C 150.898438 105.863281 150.5625 107.453125 150.222656 109.042969 C 149.390625 112.957031 148.539062 116.933594 146.816406 120.570312 C 145.183594 124.03125 142.972656 127.183594 141.382812 130.664062 C 139.824219 134.078125 138.714844 137.683594 138.128906 141.390625 C 137.519531 145.273438 137.464844 149.160156 137.925781 153.050781 C 138.449219 150.398438 139.257812 147.824219 140.332031 145.347656 C 140.648438 140.679688 141.800781 136.0625 143.757812 131.828125 " fill-opacity="1" fill-rule="nonzero"/><path fill="#000000" d="M 156.296875 185.4375 C 156.488281 186.234375 156.667969 187.03125 156.835938 187.828125 C 156.871094 187.804688 156.910156 187.773438 156.945312 187.746094 C 159.820312 192.492188 163.160156 196.957031 166.925781 201.078125 C 167.558594 201.765625 168.539062 201.457031 168.984375 200.824219 C 172.398438 205.429688 176.363281 209.625 180.792969 213.28125 C 181.75 214.070312 182.882812 213.421875 183.015625 212.503906 C 187.136719 217.371094 191.753906 221.8125 196.792969 225.734375 C 198.09375 226.75 199.710938 225.265625 198.742188 223.953125 C 202.53125 227.78125 206.714844 231.21875 211.230469 234.195312 C 212.523438 235.054688 213.835938 233.183594 212.839844 232.113281 C 211.398438 230.570312 210.054688 228.953125 208.804688 227.269531 C 211.132812 229.265625 213.582031 231.125 216.136719 232.8125 C 218.957031 234.683594 221.867188 236.488281 225.007812 237.777344 C 226.292969 238.304688 227.617188 238.746094 228.960938 239.113281 C 228.964844 239.042969 228.96875 238.96875 228.972656 238.894531 C 229.082031 237.195312 231.738281 237.191406 231.628906 238.894531 C 231.609375 239.175781 231.597656 239.457031 231.582031 239.738281 C 232.835938 239.996094 234.097656 240.203125 235.359375 240.367188 C 242.695312 241.335938 250.152344 240.621094 257.324219 238.914062 C 264.203125 237.273438 271.117188 234.882812 277.242188 231.3125 C 283.3125 227.773438 288.4375 222.285156 291.027344 215.691406 C 290.820312 215.785156 290.617188 215.875 290.410156 215.96875 C 289.398438 216.425781 288.386719 216.882812 287.378906 217.339844 C 285.082031 221.691406 281.464844 225.523438 277.40625 228.105469 C 271.792969 231.667969 265.433594 234.003906 259.042969 235.738281 C 252.316406 237.558594 245.339844 238.535156 238.371094 238.027344 C 234.957031 237.78125 231.574219 237.160156 228.308594 236.144531 C 225.25 235.195312 222.496094 233.6875 219.792969 232.003906 C 216.5625 229.992188 213.472656 227.796875 210.585938 225.3125 C 209.804688 224.640625 209.046875 223.945312 208.300781 223.238281 C 207.660156 222.632812 207.027344 222.023438 206.398438 221.402344 C 205.289062 220.324219 203.933594 219.363281 203.199219 217.972656 C 202.628906 216.898438 201.359375 217.25 200.914062 218.082031 C 200.730469 218.429688 200.6875 218.863281 200.90625 219.3125 C 201.984375 221.558594 203.210938 223.726562 204.5625 225.804688 C 199.003906 220.941406 194.175781 215.261719 190.265625 208.96875 C 189.503906 207.742188 187.328125 208.519531 187.839844 209.992188 C 188.699219 212.464844 189.75 214.855469 190.976562 217.144531 C 184.527344 210.855469 179.027344 203.632812 174.683594 195.703125 C 173.976562 194.414062 171.71875 195.292969 172.257812 196.722656 C 173.238281 199.328125 174.234375 201.933594 175.398438 204.449219 C 170.679688 199.238281 166.777344 193.324219 163.832031 186.894531 C 163.269531 185.671875 161.332031 186.316406 161.359375 187.566406 C 161.378906 188.453125 161.476562 189.320312 161.640625 190.171875 C 157.855469 184.640625 154.75 178.65625 152.421875 172.363281 C 151.894531 170.933594 149.960938 171.207031 149.816406 172.714844 C 149.742188 173.480469 149.71875 174.25 149.742188 175.015625 C 146.78125 168.949219 145.296875 162.21875 146.34375 155.476562 C 146.605469 153.769531 144.445312 153.195312 143.78125 154.769531 C 143.320312 155.863281 142.945312 156.992188 142.65625 158.136719 C 142.273438 153.476562 142.640625 148.757812 143.789062 144.167969 C 144.140625 142.757812 142.066406 141.765625 141.363281 143.148438 C 140.996094 143.871094 140.652344 144.605469 140.332031 145.347656 C 139.257812 147.824219 138.449219 150.398438 137.925781 153.050781 C 137.859375 153.386719 137.796875 153.722656 137.738281 154.0625 C 137.515625 155.378906 139.0625 156.105469 139.863281 155.523438 C 139.96875 161.027344 141.0625 166.507812 143.140625 171.648438 C 143.605469 172.800781 145.117188 172.761719 145.613281 171.972656 C 147.382812 176.886719 150.109375 181.5 153.421875 185.585938 C 153.515625 185.710938 153.609375 185.835938 153.707031 185.957031 C 153.527344 184.433594 155.910156 183.84375 156.296875 185.4375 " fill-opacity="1" fill-rule="nonzero"/><path fill="#000000" d="M 296.570312 204.398438 C 296.421875 204.851562 295.855469 205.394531 295.546875 205.75 C 294.707031 206.691406 293.753906 207.523438 292.707031 208.230469 C 290.726562 209.578125 288.53125 210.558594 286.296875 211.40625 C 280.585938 213.578125 274.773438 215.511719 269.015625 217.546875 C 266.09375 218.582031 263.171875 219.644531 260.164062 220.402344 C 257.179688 221.148438 254.121094 221.519531 251.074219 221.886719 C 244.039062 222.742188 237.097656 222.816406 230.027344 222.457031 C 224.625 222.191406 218.300781 222.238281 214.113281 218.269531 C 213.671875 217.746094 213.460938 217.445312 213.863281 216.832031 C 214.085938 216.488281 214.347656 216.320312 214.75 216.246094 C 216.046875 216.011719 217.414062 216.542969 218.605469 216.984375 C 221.398438 218.023438 224.214844 218.921875 227.132812 219.535156 C 232.917969 220.757812 238.878906 221.09375 244.769531 220.667969 C 256.640625 219.808594 268.046875 216 278.78125 211.007812 C 284.183594 208.492188 289.582031 205.328125 295.433594 203.957031 C 295.558594 203.925781 295.796875 203.867188 296.019531 203.84375 C 296.09375 203.835938 296.160156 203.835938 296.226562 203.839844 C 296.277344 203.84375 296.328125 203.851562 296.371094 203.863281 C 296.796875 204.015625 296.691406 204.03125 296.570312 204.398438 Z M 295.148438 201.300781 C 294.328125 201.449219 293.515625 201.734375 292.761719 201.976562 C 289.53125 203.023438 286.429688 204.421875 283.375 205.875 C 277.390625 208.722656 271.441406 211.550781 265.152344 213.683594 C 258.945312 215.78125 252.515625 217.332031 245.980469 217.914062 C 238.71875 218.566406 231.339844 218.09375 224.308594 216.109375 C 222.480469 215.59375 220.714844 214.925781 218.925781 214.285156 C 217.449219 213.757812 215.875 213.402344 214.304688 213.648438 C 212.890625 213.867188 211.820312 214.800781 211.265625 216.109375 C 210.660156 217.523438 211.128906 218.714844 211.984375 219.828125 C 212.046875 219.9375 212.128906 220.046875 212.234375 220.148438 C 212.328125 220.253906 212.421875 220.339844 212.519531 220.40625 C 213.515625 221.300781 214.601562 222.011719 215.75 222.582031 C 215.933594 221.476562 216.988281 220.976562 218.097656 220.957031 C 219.59375 220.929688 219.777344 222.960938 218.65625 223.488281 C 218.695312 223.554688 218.746094 223.621094 218.839844 223.695312 C 218.882812 223.734375 218.933594 223.773438 218.984375 223.808594 C 221.734375 224.578125 224.679688 224.824219 227.535156 224.984375 C 234.40625 225.359375 241.246094 225.597656 248.097656 224.882812 C 251.410156 224.535156 254.742188 224.164062 258.019531 223.570312 C 261.40625 222.960938 264.664062 221.886719 267.90625 220.75 C 274.273438 218.507812 280.691406 216.363281 287.003906 213.964844 C 289 213.207031 290.996094 212.371094 292.84375 211.28125 C 292.988281 210.964844 292.792969 210.789062 292.378906 210.410156 C 291.113281 209.257812 292.996094 207.386719 294.253906 208.535156 C 294.644531 208.890625 294.960938 209.285156 295.183594 209.695312 C 295.898438 209.140625 296.582031 208.535156 297.199219 207.871094 C 298.078125 206.921875 299.179688 205.738281 299.332031 204.40625 C 299.457031 203.285156 298.875 202.238281 297.9375 201.667969 C 297.757812 201.5625 297.5625 201.46875 297.359375 201.398438 C 296.640625 201.152344 295.890625 201.167969 295.148438 201.300781 " fill-opacity="1" fill-rule="nonzero"/><path fill="#000000" d="M 294.253906 208.535156 C 292.996094 207.386719 291.113281 209.257812 292.378906 210.410156 C 292.792969 210.789062 292.988281 210.964844 292.84375 211.28125 C 292.792969 211.390625 292.703125 211.515625 292.570312 211.675781 C 292.097656 212.222656 291.4375 212.582031 290.800781 212.898438 C 289.5 213.539062 288.152344 214.09375 286.832031 214.691406 C 284.761719 215.625 282.6875 216.5625 280.574219 217.410156 C 276.121094 219.199219 271.515625 220.542969 266.933594 221.960938 C 264.484375 222.71875 262.023438 223.460938 259.535156 224.085938 C 257.292969 224.648438 255.050781 224.953125 252.761719 225.261719 C 249.796875 225.664062 246.832031 226.054688 243.839844 226.113281 C 240.84375 226.175781 237.824219 226.042969 234.828125 225.984375 C 231.632812 225.921875 228.433594 225.78125 225.269531 225.3125 C 223.648438 225.070312 221.996094 224.8125 220.417969 224.363281 C 219.953125 224.230469 219.402344 224.089844 218.984375 223.808594 C 218.933594 223.773438 218.882812 223.734375 218.839844 223.695312 C 218.746094 223.621094 218.695312 223.554688 218.65625 223.488281 C 219.777344 222.960938 219.59375 220.929688 218.097656 220.957031 C 216.988281 220.976562 215.933594 221.476562 215.75 222.582031 C 215.726562 222.710938 215.714844 222.851562 215.71875 223 C 215.753906 224.316406 216.675781 225.523438 217.777344 226.15625 C 218.980469 226.847656 220.394531 227.113281 221.734375 227.378906 C 223.484375 227.726562 225.25 227.992188 227.023438 228.191406 C 230.347656 228.5625 233.691406 228.625 237.03125 228.671875 C 240.640625 228.722656 244.234375 228.875 247.839844 228.523438 C 251.003906 228.21875 254.230469 227.855469 257.355469 227.285156 C 260.117188 226.78125 262.824219 225.976562 265.507812 225.171875 C 270.941406 223.539062 276.421875 221.945312 281.683594 219.804688 C 283.597656 219.027344 285.492188 218.191406 287.378906 217.339844 C 288.386719 216.882812 289.398438 216.425781 290.410156 215.96875 C 290.617188 215.875 290.820312 215.785156 291.027344 215.691406 C 292.480469 215.035156 293.90625 214.335938 294.890625 213.011719 C 295.714844 211.902344 295.738281 210.730469 295.183594 209.695312 C 294.960938 209.285156 294.644531 208.890625 294.253906 208.535156 " fill-opacity="1" fill-rule="nonzero"/><path fill="#000000" d="M 151.539062 272.089844 C 150.300781 273.535156 148.980469 274.890625 147.589844 276.167969 C 145.554688 281.210938 143.082031 286.054688 140.078125 290.671875 C 137.570312 294.539062 134.582031 298.179688 130.292969 300.121094 C 128.738281 300.824219 130.085938 303.109375 131.632812 302.410156 C 135.511719 300.65625 138.464844 297.542969 140.921875 294.136719 C 143.511719 290.546875 145.769531 286.644531 147.691406 282.65625 C 151.84375 274.03125 154.386719 264.746094 156.3125 255.398438 C 157.40625 250.105469 158.300781 244.773438 159.203125 239.441406 C 159.371094 238.445312 158.414062 237.605469 157.59375 237.757812 C 159.191406 229.941406 159.570312 221.878906 158.683594 213.929688 C 158.632812 213.453125 158.402344 213.109375 158.097656 212.898438 C 158.984375 204.53125 158.566406 196.074219 156.835938 187.828125 C 156.667969 187.03125 156.488281 186.234375 156.296875 185.4375 C 155.910156 183.84375 153.527344 184.433594 153.707031 185.957031 C 153.710938 186.019531 153.722656 186.082031 153.738281 186.144531 C 156.179688 196.21875 156.589844 206.738281 154.890625 216.96875 C 154.714844 218.027344 155.574219 218.742188 156.402344 218.605469 C 156.875 228.378906 155.441406 238.164062 152.148438 247.414062 C 151.644531 248.824219 153.882812 249.765625 154.570312 248.4375 C 154.773438 248.050781 154.972656 247.664062 155.171875 247.28125 C 154.046875 253.570312 152.777344 259.832031 151.046875 265.988281 C 150.660156 267.359375 150.25 268.71875 149.808594 270.066406 C 150.929688 269.078125 152.597656 270.855469 151.539062 272.089844 " fill-opacity="1" fill-rule="nonzero"/><path fill="#000000" d="M 233.558594 285.570312 C 237.699219 292.277344 241.835938 298.988281 245.976562 305.695312 C 246.867188 307.144531 249.164062 305.8125 248.265625 304.355469 C 244.863281 298.84375 241.464844 293.335938 238.066406 287.824219 C 238.46875 287.558594 238.699219 287.097656 238.472656 286.480469 C 238.359375 286.175781 238.25 285.867188 238.140625 285.5625 C 235.808594 283.378906 233.871094 280.816406 232.660156 277.8125 C 233.300781 279.765625 233.96875 281.71875 234.652344 283.664062 C 233.742188 283.714844 232.929688 284.554688 233.558594 285.570312 " fill-opacity="1" fill-rule="nonzero"/><path fill="#000000" d="M 228.972656 238.894531 C 228.96875 238.96875 228.964844 239.042969 228.960938 239.113281 C 228.613281 244.757812 228.769531 250.410156 229.410156 256.019531 C 229.035156 255.101562 228.691406 254.167969 228.386719 253.21875 C 227.867188 251.59375 225.425781 252.257812 225.828125 253.925781 C 227.757812 261.867188 230.003906 269.730469 232.554688 277.496094 C 232.25 276.082031 234.589844 275.539062 235.183594 277.027344 C 235.195312 277.050781 235.207031 277.074219 235.214844 277.097656 C 233.867188 273.007812 232.601562 268.882812 231.421875 264.738281 C 232.324219 265.085938 233.425781 264.339844 233.195312 263.171875 C 231.671875 255.457031 231.148438 247.589844 231.582031 239.738281 C 231.597656 239.457031 231.609375 239.175781 231.628906 238.894531 C 231.738281 237.191406 229.082031 237.195312 228.972656 238.894531 " fill-opacity="1" fill-rule="nonzero"/><g clip-path="url(#5de8785d0d)"><path fill="#000000" d="M 48.6875 328.210938 C 49.027344 327.613281 48.835938 326.992188 48.425781 326.601562 C 52.199219 321.84375 56.320312 317.328125 60.925781 313.480469 C 67.34375 308.117188 75.011719 304.460938 82.855469 301.707031 C 98.390625 296.25 114.886719 293.957031 130.019531 287.300781 C 136.394531 284.496094 142.46875 280.875 147.589844 276.167969 C 148.980469 274.890625 150.300781 273.535156 151.539062 272.089844 C 152.597656 270.855469 150.929688 269.078125 149.808594 270.066406 C 149.761719 270.109375 149.710938 270.160156 149.660156 270.210938 C 139.070312 282.5625 123.042969 287.902344 107.800781 291.929688 C 91.710938 296.175781 74.589844 299.648438 61.082031 309.980469 C 52.816406 316.308594 46.109375 324.820312 40.183594 333.300781 C 39.3125 334.546875 41.238281 335.976562 42.265625 334.910156 C 42.445312 334.726562 42.625 334.539062 42.800781 334.355469 C 39.808594 341.878906 38.3125 349.894531 37.730469 358.003906 L 40.34375 358.003906 C 40.773438 352.082031 41.71875 346.21875 43.4375 340.507812 C 44.726562 336.21875 46.464844 332.101562 48.6875 328.210938 " fill-opacity="1" fill-rule="nonzero"/></g><g clip-path="url(#f4af875d04)"><path fill="#000000" d="M 316.703125 334.078125 C 317.085938 334.5 317.46875 334.925781 317.851562 335.347656 C 318.753906 336.34375 320.421875 335.296875 320.070312 334.058594 C 318.257812 327.695312 315.332031 321.347656 311.449219 315.972656 C 307.414062 310.398438 301.625 306.359375 295.351562 303.640625 C 288.707031 300.765625 281.484375 299.449219 274.445312 297.90625 C 266.957031 296.265625 259.519531 294.289062 252.480469 291.207031 C 245.808594 288.289062 238.109375 284.246094 235.214844 277.097656 C 235.207031 277.074219 235.195312 277.050781 235.183594 277.027344 C 234.589844 275.539062 232.25 276.082031 232.554688 277.496094 C 232.570312 277.570312 232.589844 277.652344 232.625 277.730469 C 232.632812 277.757812 232.648438 277.785156 232.660156 277.8125 C 233.871094 280.816406 235.808594 283.378906 238.140625 285.5625 C 240.566406 287.835938 243.425781 289.703125 246.34375 291.222656 C 253.234375 294.808594 260.640625 297.304688 268.164062 299.171875 C 281.769531 302.550781 297.238281 303.957031 307.253906 314.964844 C 309.734375 317.691406 311.636719 320.953125 313.304688 324.226562 C 314.039062 325.664062 314.722656 327.132812 315.347656 328.625 C 315.058594 328.304688 314.769531 327.984375 314.480469 327.667969 C 313.613281 326.707031 311.824219 327.710938 312.261719 328.957031 C 315.597656 338.351562 317.550781 348.125 318.777344 358.003906 L 321.449219 358.003906 C 320.738281 352.292969 319.796875 346.613281 318.511719 340.996094 C 317.972656 338.671875 317.375 336.367188 316.703125 334.078125 " fill-opacity="1" fill-rule="nonzero"/></g><path fill="#000000" d="M 243.820312 82.269531 C 243.945312 83.242188 244.007812 84.21875 244.019531 85.195312 C 244.023438 85.3125 244.023438 85.429688 244.023438 85.542969 C 244.035156 87.746094 243.828125 89.957031 243.625 92.144531 C 243.316406 95.515625 243.003906 98.882812 242.695312 102.25 C 242.539062 103.949219 245.191406 103.9375 245.351562 102.25 C 245.421875 101.46875 245.496094 100.679688 245.566406 99.898438 C 245.730469 98.109375 245.894531 96.328125 246.058594 94.539062 C 246.140625 93.671875 246.21875 92.800781 246.300781 91.929688 C 246.496094 89.8125 246.664062 87.703125 246.652344 85.59375 C 246.648438 84.320312 246.578125 83.046875 246.40625 81.773438 C 246.394531 81.695312 246.386719 81.621094 246.378906 81.546875 C 245.539062 75.644531 242.875 70.203125 239.867188 65.109375 C 239.664062 64.765625 239.457031 64.417969 239.253906 64.074219 C 238.429688 62.710938 236.367188 63.785156 236.824219 65.128906 C 236.855469 65.226562 236.902344 65.320312 236.960938 65.414062 C 240.09375 70.605469 243.023438 76.175781 243.820312 82.269531 " fill-opacity="1" fill-rule="nonzero"/><path fill="#000000" d="M 152.15625 68.199219 C 152.085938 68.273438 152.023438 68.347656 151.957031 68.421875 C 151.363281 69.070312 150.828125 69.753906 150.351562 70.464844 C 148.8125 72.757812 147.855469 75.359375 147.484375 78.164062 C 147.335938 79.28125 148.53125 79.644531 149.375 79.292969 C 149.175781 80.214844 149.070312 81.160156 149.105469 82.121094 C 149.179688 84.296875 149.753906 86.488281 150.402344 88.625 C 150.695312 89.585938 151.003906 90.535156 151.292969 91.460938 C 151.382812 91.753906 151.539062 91.96875 151.738281 92.121094 C 152.621094 92.804688 154.265625 92.097656 153.847656 90.753906 C 153.03125 88.117188 151.992188 85.285156 151.78125 82.515625 C 151.566406 79.695312 152.789062 77.078125 153.964844 74.589844 C 154.464844 73.546875 153.316406 71.875 152.152344 72.777344 C 152.066406 72.84375 151.980469 72.914062 151.894531 72.984375 C 152.484375 71.933594 153.203125 70.957031 154.03125 70.078125 C 155.199219 68.832031 153.328125 66.949219 152.15625 68.199219 " fill-opacity="1" fill-rule="nonzero"/><path fill="#000000" d="M 216.449219 173.015625 C 216.128906 174.109375 215.816406 175.199219 215.5 176.292969 C 215.023438 177.9375 217.585938 178.640625 218.054688 177 C 218.375 175.90625 218.691406 174.8125 219.007812 173.722656 C 219.480469 172.078125 216.921875 171.375 216.449219 173.015625 " fill-opacity="1" fill-rule="nonzero"/><path fill="#000000" d="M 226.414062 183.527344 C 225.644531 183.527344 225.148438 184.136719 225.085938 184.851562 C 224.988281 185.945312 224.894531 187.039062 224.796875 188.132812 C 224.734375 188.84375 225.453125 189.457031 226.125 189.457031 C 226.898438 189.457031 227.390625 188.847656 227.453125 188.132812 C 227.550781 187.039062 227.644531 185.945312 227.742188 184.851562 C 227.804688 184.140625 227.085938 183.527344 226.414062 183.527344 " fill-opacity="1" fill-rule="nonzero"/><path fill="#000000" d="M 235.738281 174.394531 C 235.113281 174.597656 234.535156 175.335938 234.808594 176.023438 C 235.089844 176.738281 235.375 177.457031 235.660156 178.171875 C 235.914062 178.8125 236.558594 179.332031 237.292969 179.097656 C 237.914062 178.894531 238.492188 178.15625 238.21875 177.464844 C 237.933594 176.75 237.652344 176.035156 237.367188 175.316406 C 237.113281 174.675781 236.46875 174.15625 235.738281 174.394531 " fill-opacity="1" fill-rule="nonzero"/><path fill="#000000" d="M 239.519531 203.5625 C 240.085938 203.902344 241.035156 203.738281 241.335938 203.085938 C 242.207031 201.171875 242.214844 199.234375 241.382812 197.304688 C 241.09375 196.644531 240.132812 196.503906 239.566406 196.832031 C 238.878906 197.21875 238.808594 197.988281 239.089844 198.644531 C 239.507812 199.613281 239.480469 200.789062 239.042969 201.746094 C 238.742188 202.40625 238.859375 203.167969 239.519531 203.5625 " fill-opacity="1" fill-rule="nonzero"/><path fill="#000000" d="M 215.609375 201.824219 C 215.988281 200.414062 216.429688 199.023438 216.933594 197.652344 C 217.523438 196.046875 214.960938 195.351562 214.371094 196.945312 C 213.867188 198.316406 213.429688 199.707031 213.046875 201.121094 C 212.605469 202.769531 215.164062 203.472656 215.609375 201.824219 " fill-opacity="1" fill-rule="nonzero"/><path fill="#000000" d="M 270.171875 161.699219 C 269.371094 160.191406 267.078125 161.53125 267.878906 163.042969 C 268.535156 164.277344 269.183594 165.511719 269.839844 166.746094 C 270.636719 168.257812 272.929688 166.917969 272.132812 165.410156 C 271.480469 164.171875 270.824219 162.9375 270.171875 161.699219 " fill-opacity="1" fill-rule="nonzero"/><path fill="#000000" d="M 286.078125 171.035156 C 286.511719 171.605469 287.226562 171.902344 287.894531 171.511719 C 288.457031 171.183594 288.804688 170.273438 288.371094 169.695312 C 287.597656 168.671875 286.828125 167.648438 286.058594 166.625 C 285.625 166.054688 284.910156 165.757812 284.238281 166.148438 C 283.675781 166.480469 283.332031 167.390625 283.765625 167.964844 C 284.535156 168.988281 285.308594 170.011719 286.078125 171.035156 " fill-opacity="1" fill-rule="nonzero"/><path fill="#000000" d="M 277.269531 183.601562 C 277.367188 185.296875 280.027344 185.308594 279.925781 183.601562 C 279.824219 181.878906 279.722656 180.15625 279.625 178.433594 C 279.527344 176.738281 276.871094 176.722656 276.96875 178.433594 C 277.070312 180.15625 277.171875 181.878906 277.269531 183.601562 " fill-opacity="1" fill-rule="nonzero"/><path fill="#000000" d="M 279.121094 194.640625 C 278.5625 194.964844 278.203125 195.882812 278.644531 196.453125 C 279.4375 197.484375 279.769531 198.578125 279.648438 199.878906 C 279.585938 200.59375 280.308594 201.207031 280.976562 201.207031 C 281.75 201.207031 282.238281 200.59375 282.304688 199.878906 C 282.460938 198.191406 281.972656 196.460938 280.9375 195.117188 C 280.5 194.546875 279.796875 194.246094 279.121094 194.640625 " fill-opacity="1" fill-rule="nonzero"/><path fill="#000000" d="M 292.335938 188.835938 C 292.398438 189.550781 292.902344 190.164062 293.660156 190.164062 C 294.332031 190.164062 295.050781 189.554688 294.992188 188.835938 C 294.894531 187.746094 294.796875 186.652344 294.703125 185.5625 C 294.640625 184.847656 294.136719 184.234375 293.375 184.234375 C 292.707031 184.234375 291.988281 184.839844 292.046875 185.5625 C 292.144531 186.652344 292.238281 187.746094 292.335938 188.835938 " fill-opacity="1" fill-rule="nonzero"/><path fill="#000000" d="M 231.515625 159.558594 C 230.902344 159.203125 230.054688 159.410156 229.699219 160.035156 C 229.167969 160.976562 228.886719 161.972656 228.796875 163.042969 C 228.738281 163.757812 229.453125 164.371094 230.125 164.371094 C 230.894531 164.371094 231.398438 163.761719 231.457031 163.042969 C 231.5 162.515625 231.707031 161.882812 231.992188 161.375 C 232.347656 160.75 232.140625 159.925781 231.515625 159.558594 " fill-opacity="1" fill-rule="nonzero"/><path fill="#000000" d="M 274.585938 149.5625 C 274.425781 148.886719 273.617188 148.421875 272.953125 148.636719 C 272.246094 148.863281 271.855469 149.542969 272.027344 150.269531 C 272.226562 151.113281 272.675781 151.894531 273.296875 152.5 C 273.792969 152.984375 274.683594 153.03125 275.175781 152.5 C 275.65625 151.976562 275.703125 151.140625 275.175781 150.621094 C 275.097656 150.550781 275.027344 150.472656 274.960938 150.394531 C 274.96875 150.394531 274.816406 150.179688 274.792969 150.136719 C 274.761719 150.078125 274.730469 150.019531 274.699219 149.960938 C 274.660156 149.828125 274.617188 149.699219 274.585938 149.5625 " fill-opacity="1" fill-rule="nonzero"/></svg>