<svg xmlns="http://www.w3.org/2000/svg" xmlns:xlink="http://www.w3.org/1999/xlink" width="500" zoomAndPan="magnify" viewBox="0 0 375 374.999991" height="500" preserveAspectRatio="xMidYMid meet" version="1.0"><defs><clipPath id="6aecb0213f"><path d="M 17.046875 37.5 L 284 37.5 L 284 285 L 17.046875 285 Z M 17.046875 37.5 " clip-rule="nonzero"/></clipPath><clipPath id="239823dd29"><path d="M 123 91 L 358.296875 91 L 358.296875 337 L 123 337 Z M 123 91 " clip-rule="nonzero"/></clipPath></defs><g clip-path="url(#6aecb0213f)"><path fill="#000000" d="M 283.507812 125.367188 C 283.507812 76.949219 244.117188 37.5625 195.695312 37.5625 L 104.859375 37.5625 C 56.4375 37.5625 17.046875 76.949219 17.046875 125.367188 L 17.046875 149.34375 C 17.046875 187.109375 41.066406 220.542969 76.820312 232.535156 L 80.332031 233.714844 L 78.476562 236.921875 C 73.707031 245.144531 67.230469 258.0625 58.675781 276.410156 C 57.644531 278.613281 58.109375 281.25 59.820312 282.972656 C 61.523438 284.675781 64.230469 285.148438 66.363281 284.164062 L 169.253906 237.148438 L 195.695312 237.148438 C 244.117188 237.148438 283.507812 197.761719 283.507812 149.34375 Z M 271.855469 149.34375 C 271.855469 191.339844 237.691406 225.507812 195.695312 225.507812 L 167.984375 225.507812 C 167.15625 225.507812 166.316406 225.691406 165.5625 226.039062 L 76.070312 266.933594 L 79.945312 259.242188 C 83.484375 252.214844 89.882812 239.828125 92.957031 235.820312 L 93.304688 235.367188 L 93.792969 235.070312 C 95.320312 234.144531 96.328125 232.605469 96.554688 230.832031 C 96.949219 227.742188 94.855469 224.898438 91.78125 224.355469 C 55.230469 217.964844 28.695312 186.417969 28.695312 149.34375 L 28.695312 125.367188 C 28.695312 83.371094 62.863281 49.199219 104.855469 49.199219 L 195.695312 49.199219 C 237.691406 49.199219 271.855469 83.367188 271.855469 125.367188 Z M 271.855469 149.34375 " fill-opacity="1" fill-rule="nonzero"/></g><path fill="#000000" d="M 81.636719 122.839844 C 72.511719 122.839844 65.085938 130.257812 65.085938 139.375 C 65.085938 148.492188 72.511719 155.910156 81.636719 155.910156 C 90.761719 155.910156 98.1875 148.492188 98.1875 139.375 C 98.1875 130.257812 90.765625 122.839844 81.636719 122.839844 Z M 81.636719 122.839844 " fill-opacity="1" fill-rule="nonzero"/><path fill="#000000" d="M 218.917969 122.839844 C 209.789062 122.839844 202.367188 130.257812 202.367188 139.375 C 202.367188 148.492188 209.792969 155.910156 218.917969 155.910156 C 228.042969 155.910156 235.46875 148.492188 235.46875 139.375 C 235.46875 130.257812 228.042969 122.839844 218.917969 122.839844 Z M 218.917969 122.839844 " fill-opacity="1" fill-rule="nonzero"/><path fill="#000000" d="M 150.277344 122.839844 C 141.148438 122.839844 133.726562 130.257812 133.726562 139.375 C 133.726562 148.492188 141.152344 155.910156 150.277344 155.910156 C 159.402344 155.910156 166.828125 148.492188 166.828125 139.375 C 166.828125 130.257812 159.40625 122.839844 150.277344 122.839844 Z M 150.277344 122.839844 " fill-opacity="1" fill-rule="nonzero"/><g clip-path="url(#239823dd29)"><path fill="#000000" d="M 135.066406 263.183594 L 123.074219 268.664062 C 138.367188 281.601562 158.085938 289.464844 179.644531 289.464844 L 206.085938 289.464844 L 308.976562 336.480469 C 311.105469 337.46875 313.816406 336.992188 315.519531 335.289062 C 317.230469 333.566406 317.695312 330.929688 316.664062 328.730469 C 308.109375 310.378906 301.632812 297.460938 296.867188 289.238281 L 295.007812 286.03125 L 298.523438 284.851562 C 334.273438 272.859375 358.296875 239.425781 358.296875 201.660156 L 358.296875 177.683594 C 358.296875 134.890625 327.488281 99.253906 286.910156 91.53125 C 288.464844 95.707031 289.722656 100.015625 290.695312 104.4375 C 290.71875 104.445312 290.738281 104.453125 290.761719 104.457031 C 290.738281 104.453125 290.714844 104.441406 290.6875 104.4375 C 292.167969 111.175781 293 118.183594 293 125.382812 L 293 149.359375 C 293 202.992188 249.359375 246.628906 195.707031 246.628906 L 171.328125 246.628906 M 278.785156 283.148438 L 278.785156 283.144531 " fill-opacity="1" fill-rule="nonzero"/></g></svg>